<svg xmlns="http://www.w3.org/2000/svg" viewBox="0 0 2020 2672" fill="currentColor" style="color: #E8D5A3;">
  <path d="M 647.8 168.8 C 641.5 174.8 636.5 180.9 633.4 186.5 C 626.8 198.2 625.9 200.6 623 213.5 C 622.5 215.7 621.8 224 621.5 232 C 621.1 242.6 621.3 249.3 622.4 257 C 626 281.6 632 303.9 636.1 307.6 C 637.9 309.2 638.1 309.2 640.5 307 C 641.9 305.7 644.4 302.1 646.1 299.1 C 647.9 296 650.4 292.2 651.7 290.6 C 653.1 289 657.4 280.9 661.5 272.6 C 668 259 672.6 246.8 676 234 C 679.6 220.1 679.6 192.4 675.9 184.3 C 674.9 182 674 179.6 674 178.9 C 674 177 667.1 164.7 665.2 163.2 C 664.3 162.6 661.6 162 659.2 162 C 655.1 162 654.3 162.5 647.8 168.8 M 1364.1 167.6 C 1362.4 169 1361 170.9 1361 171.8 C 1361 172.7 1359.8 175.1 1358.4 177.2 C 1354.8 182.3 1352.9 192 1352.3 207.5 C 1351.8 221.5 1352.6 228.4 1356.6 244 C 1359.7 255.7 1360.3 257.3 1365.7 268.7 C 1368 273.8 1370 278.2 1370 278.6 C 1370 279 1372.6 283.6 1375.7 288.9 C 1378.9 294.2 1382.3 300.1 1383.3 302.1 C 1385.7 306.9 1390.5 311.4 1392.4 310.7 C 1394 310.1 1399 300.3 1399 297.8 C 1399 296.3 1401.6 288 1403.5 283.4 C 1404.3 281.6 1405.4 275.6 1406 269.9 C 1406.6 264.2 1407.6 256.5 1408.2 252.8 C 1409.3 246.1 1409 237.5 1407 218.5 C 1406.1 210.3 1405.2 207 1401.9 200 C 1399.8 195.3 1397.7 191 1397.2 190.3 C 1390.1 179.1 1381.3 168.7 1376.9 166.5 C 1372.5 164.2 1367.6 164.6 1364.1 167.6 M 1011.5 242.1 C 1003 243 994.7 244.7 990 246.5 C 988.1 247.3 984.9 248.1 982.9 248.3 C 979.8 248.8 972 252.2 960 258.4 C 958.6 259.1 952.3 262.3 945.9 265.5 C 939.5 268.6 932.3 272.8 929.9 274.6 C 927.5 276.5 922.8 280.1 919.5 282.6 C 912.3 288 882.7 317.2 876.7 324.8 C 874.4 327.8 870.1 333.2 867.2 336.7 C 864.4 340.3 862 343.7 862 344.1 C 862 344.6 859.8 347.8 857.2 351.3 C 854.5 354.7 850.8 360.2 849 363.5 C 847.2 366.8 844.3 371.3 842.5 373.5 C 839.2 377.8 835.4 384 831.4 392 C 830 394.7 828.4 397 827.7 397 C 827 397 823.4 393.9 819.5 390.1 C 806 376.8 799 371.5 783 363.2 C 776.6 359.8 769.6 356.7 767.5 356.1 C 765.3 355.6 760.8 354.1 757.5 353 C 752 351 750.2 350.9 737 351.4 C 723 352 717.4 353.1 710.2 356.9 C 709.3 357.4 705.6 359.3 702 361.1 C 691.3 366.3 685.7 370.4 681.5 375.9 C 679.3 378.8 676.5 382.4 675.2 383.9 C 674 385.5 673 387.3 673 387.9 C 673 388.9 670 396.1 667.4 401.2 C 666.6 402.6 666 405 666 406.4 C 666 407.9 665.4 410.5 664.7 412.3 C 663.9 414.1 662.8 420 662.1 425.5 C 661.4 431 660.4 437.5 659.9 439.9 C 659.3 442.4 658.5 450.6 657.9 458.3 C 657.4 466 656.5 475.2 655.9 478.7 C 655.3 482.2 655.1 486.1 655.4 487.5 C 655.8 489 655 493.6 653.5 498.7 C 652.1 503.5 651 508.6 651 510 C 651 515.2 642.5 537.9 635.7 551 C 633.3 555.7 631 560.6 630.5 562 C 630.1 563.4 628.9 566.5 627.8 569 C 624.2 577 623.3 579.3 619.6 589.6 C 617.6 595.2 616 600.3 616 601 C 616 601.7 615.2 603.9 614.1 605.9 C 610.4 613.3 608 619.1 608 621.1 C 608 622.2 606.9 625.3 605.5 628 C 604.1 630.7 603 633.5 603 634.1 C 603 634.7 601.2 640 599.1 645.9 C 597 651.7 594.5 659.2 593.7 662.5 C 592.8 665.8 591.6 670.5 591 673 C 590.3 675.5 589.2 680 588.5 683 C 587.7 686 586.4 691.4 585.5 695 C 584.6 698.6 583.5 703.5 583.1 706 C 582.7 708.5 581.5 713.4 580.6 717 C 579.6 720.5 578.2 727 577.4 731.5 C 576.6 735.9 575.1 744.2 574 750 C 572.9 755.8 571.3 765.9 570.6 772.5 C 569.9 779.1 568.7 786.5 568.1 789 C 567.1 793.5 564.7 820.5 562.8 849.5 C 561.6 868.4 561.7 928.8 562.9 948 C 564.2 968.6 566.9 997.7 568.1 1003 C 569 1007.6 571.5 1023.9 573 1036.5 C 573.5 1040.3 574.6 1046.7 575.5 1050.5 C 576.3 1054.3 577.6 1060.7 578.4 1064.5 C 581.4 1079.1 585.8 1097.3 587.5 1102.5 C 588.3 1104.7 589.3 1109.1 589.9 1112.3 C 590.5 1115.4 591.4 1118.9 592 1120 C 592.6 1121.1 593.5 1123.9 594 1126.2 C 595 1131.1 603.8 1156.7 606.2 1162 C 607.1 1163.9 608.6 1168.4 609.6 1172 C 610.6 1175.6 611.7 1179 612.1 1179.5 C 612.5 1180 614 1183.4 615.5 1187 C 616.9 1190.6 618.7 1194.8 619.5 1196.5 C 620.2 1198.2 621.4 1201.5 622.1 1204 C 622.8 1206.5 623.9 1209.2 624.7 1210.1 C 625.4 1210.9 626 1212.6 626 1213.7 C 626 1214.8 626.9 1216.9 628 1218.3 C 629.1 1219.7 630 1221.3 630 1221.9 C 630 1223.2 635.5 1234.4 637.9 1238 C 638.9 1239.4 640.5 1242.5 641.5 1245 C 642.5 1247.5 644.1 1250.4 645 1251.5 C 647.5 1254.6 654.5 1266.9 658.8 1275.7 C 660.9 1280.1 663.4 1284.7 664.4 1286.1 C 667.7 1290.8 678.5 1307.2 680.2 1310.2 C 681.1 1311.9 682.7 1314.2 683.8 1315.4 C 684.9 1316.5 686.9 1319.4 688.3 1321.7 C 693.1 1329.3 730.8 1373.4 739.7 1381.7 C 744.5 1386.2 753 1394.1 758.5 1399.3 C 768.5 1408.6 777.3 1416.1 782 1419.3 C 783.4 1420.2 787.3 1423.1 790.8 1425.7 C 802.6 1434.7 816.7 1444 818.4 1444 C 819.1 1444 820.5 1444.9 821.5 1446 C 823.2 1447.9 825.5 1449.3 840.5 1457.6 C 847 1461.2 859.1 1467.2 868 1471.3 C 871 1472.6 878.7 1475.4 885 1477.5 C 891.3 1479.5 898.8 1482 901.5 1483 C 912.7 1487.2 928.2 1491.5 937 1493.1 C 939.5 1493.5 945.1 1494.5 949.5 1495.4 C 972.9 1500.1 1011 1502.2 1031.3 1500 C 1071.7 1495.6 1072.4 1495.4 1093.6 1490 C 1104.3 1487.2 1114.1 1485 1115.3 1485 C 1116.6 1485 1118.1 1484.5 1118.7 1483.9 C 1119.3 1483.3 1121.3 1482.5 1123.1 1482 C 1130.2 1480.2 1150.8 1472.5 1159.5 1468.5 C 1161.2 1467.7 1165 1466 1168 1464.5 C 1179.7 1459.1 1198.6 1448.6 1200.5 1446.4 C 1201 1445.8 1205 1443.4 1209.3 1441.1 C 1217.1 1436.9 1230 1428.6 1237.5 1422.9 C 1239.7 1421.3 1242.6 1419.2 1244 1418.3 C 1246.6 1416.5 1252.6 1411.5 1259.6 1405.2 C 1261.9 1403.2 1266.1 1399.7 1269 1397.5 C 1271.8 1395.3 1276 1391.6 1278.2 1389.2 C 1280.5 1386.9 1282.7 1385 1283.1 1385 C 1284.1 1385 1304.3 1364.3 1309.9 1357.5 C 1314.1 1352.5 1320.9 1344.8 1331.2 1333.7 C 1334.1 1330.5 1336.9 1327.1 1337.4 1326.2 C 1337.9 1325.3 1339.1 1323.9 1340.1 1323.3 C 1341.1 1322.6 1342.9 1320.3 1344.1 1318.3 C 1345.3 1316.2 1347.7 1312.9 1349.4 1310.9 C 1351.1 1308.8 1353.6 1305.5 1355 1303.5 C 1356.4 1301.5 1358.7 1298.3 1360.2 1296.5 C 1361.8 1294.7 1363 1292.5 1363 1291.6 C 1363 1290.6 1364.3 1288.7 1365.8 1287.2 C 1368.6 1284.5 1371.3 1280.6 1376.6 1271.5 C 1380.5 1264.8 1381 1264 1384.4 1258.9 C 1386 1256.5 1388.5 1252.8 1389.9 1250.6 C 1393.2 1245.7 1398.9 1235.5 1403.1 1227 C 1417.6 1197.7 1427.1 1177.6 1427.6 1175.1 C 1428 1173.4 1428.9 1171.5 1429.6 1170.9 C 1430.4 1170.3 1431 1169.2 1431 1168.5 C 1431 1167.8 1432.3 1164.9 1433.9 1161.9 C 1435.4 1158.9 1437.1 1154.9 1437.5 1153 C 1437.9 1151.1 1438.8 1148.4 1439.6 1147 C 1441.2 1144 1443.5 1137.8 1445.9 1129.5 C 1446.9 1126.2 1448.9 1120.4 1450.4 1116.6 C 1451.8 1112.9 1453 1108.7 1453 1107.3 C 1453 1106 1453.5 1104 1454.1 1102.9 C 1454.7 1101.8 1455.8 1098.7 1456.5 1096.2 C 1457.2 1093.6 1459.4 1087 1461.3 1081.5 C 1463.2 1076 1465.1 1069.9 1465.5 1068 C 1465.9 1066.1 1466.6 1064 1467 1063.5 C 1467.4 1063 1468.3 1059.8 1469 1056.5 C 1469.6 1053.2 1471 1047.3 1472 1043.5 C 1474.8 1032.7 1476 1027.3 1477.6 1017.6 C 1478.4 1012.8 1479.5 1008 1480 1007 C 1480.6 1006 1481 1003.4 1481 1001.3 C 1481.1 999.2 1481.7 994.4 1482.6 990.5 C 1483.4 986.6 1484.5 979.7 1485 975 C 1485.5 970.3 1486.6 961.3 1487.5 955 C 1489 944.1 1491.2 921.9 1493 901 C 1494.1 888.3 1494 812.7 1493 802 C 1492.5 797.3 1491.5 785.6 1490.7 776 C 1488.8 752.3 1485.2 721.9 1483.5 714 C 1482.7 710.4 1481.8 704.6 1481.4 701 C 1481.1 697.4 1480.3 692.7 1479.8 690.5 C 1479.2 688.3 1478.1 683.6 1477.4 680 C 1475.9 672.4 1472.7 658.7 1470.7 651.5 C 1469.9 648.8 1468.3 642.5 1467 637.5 C 1465.7 632.5 1463.6 625.7 1462.3 622.3 C 1461.1 618.9 1460 615.5 1460 614.7 C 1460 613.8 1458.4 609 1456.5 604 C 1454.6 599 1453 594 1453 593 C 1453 592.1 1452.1 589.1 1451.1 586.4 C 1450 583.7 1448.2 578.1 1446.9 574 C 1445.6 569.9 1442.2 561 1439.3 554.3 C 1436.4 547.6 1434 541.9 1434 541.5 C 1434 540 1415 501.1 1405.9 484 C 1402.5 477.7 1398.7 470.5 1397.4 468 C 1396.1 465.5 1393.3 461 1391 458 C 1388.8 455 1386.1 450.8 1385 448.8 C 1383.9 446.7 1382.5 445 1382 445 C 1381.4 445 1380.5 443.9 1380 442.5 C 1379 439.8 1371.4 428.6 1367.3 423.7 C 1366.1 422.1 1365 420.4 1365 420 C 1365 419.5 1364.1 418 1362.9 416.8 C 1361.8 415.5 1359.3 412.5 1357.4 410 C 1355.5 407.5 1352.5 403.9 1350.9 402 C 1349.2 400.1 1345.6 395.6 1342.9 392 C 1337.8 385.3 1304.1 350.6 1295.9 343.5 C 1287.3 336.1 1261.8 315.5 1257.7 312.6 C 1255.4 311 1250.8 308.7 1247.5 307.5 C 1240.7 304.9 1238 305.1 1227 309.1 C 1222 311 1220.1 312.3 1218.3 315 C 1217.1 316.9 1215.2 319.6 1214.2 321 C 1213.1 322.4 1211.8 326.7 1211.1 331 C 1210.4 335.1 1209.5 340.5 1208.9 343 C 1208.4 345.5 1207.6 351.4 1207.2 356.3 C 1206.8 361.1 1206.1 365.1 1205.5 365.2 C 1204.5 365.3 1191.1 346.3 1191 344.7 C 1191 343.6 1185.6 336.4 1175.5 324.2 C 1171.1 318.9 1166.7 313.4 1165.8 312 C 1162.3 306.6 1149.1 292.9 1141.5 286.6 C 1137.1 283 1132.2 278.8 1130.5 277.2 C 1128.8 275.6 1126.8 274 1126 273.6 C 1125.2 273.2 1122.7 271.8 1120.5 270.5 C 1118.3 269.2 1113.8 266.7 1110.4 265.1 C 1107.1 263.5 1103.8 261.4 1103.1 260.6 C 1102.3 259.7 1100.9 259 1100 259 C 1099 259 1095 257.4 1091.1 255.4 C 1087.2 253.4 1081.9 251.2 1079.3 250.5 C 1076.6 249.7 1072.7 248.5 1070.5 247.7 C 1066.5 246.2 1049.9 243.4 1036 241.9 C 1027 241 1020.8 241 1011.5 242.1 M 721.6 262.6 C 719.4 264.5 717.1 266 716.4 266 C 715.7 266 712.3 268.4 708.8 271.3 C 705.3 274.2 700.7 277.8 698.5 279.3 C 696.2 280.8 690.5 285.5 685.7 289.7 C 680.9 294 675.4 298.9 673.5 300.5 C 671.5 302.1 668.2 305.1 666.1 307 C 663.9 308.9 658.5 313.9 654 318 C 645.8 325.5 628.3 343.1 607.4 364.9 C 592 381.1 590 383.3 590 384.2 C 590 384.6 586.7 388.7 582.8 393.4 C 566.8 412 560.8 419.8 551.3 434 C 549.2 437 545.6 441.8 543.3 444.7 C 540.9 447.5 539 450.2 539 450.8 C 539 451.3 538.1 452.5 537 453.5 C 535.9 454.5 535 455.8 535 456.5 C 535 457.1 533.9 459.2 532.5 461.1 C 528.5 466.5 523 474.8 521.9 477.3 C 521.4 478.5 519.8 481.3 518.5 483.5 C 517.2 485.7 515 490 513.5 493 C 512.1 496 510.1 499.4 509.1 500.5 C 508.1 501.6 506.6 503.7 505.9 505.2 C 505.1 506.7 502.5 511.4 500 515.7 C 497.5 520 495.3 524 495.1 524.5 C 494.9 525 493 529.3 490.8 534 C 479.7 557.8 478 561.6 478 562.8 C 478 563.3 477.3 564.3 476.5 565 C 475.7 565.7 475 567.1 475 568.2 C 475 569.3 474.1 571.9 473.1 573.9 C 471.3 577.2 468.9 583.6 461 605 C 459.2 609.7 457.2 615 456.4 616.8 C 455.6 618.6 455 620.8 455 621.8 C 455 622.7 454.3 624.9 453.4 626.5 C 452.5 628.1 451.4 632.1 450.9 635.4 C 450.3 638.6 449.2 642.6 448.4 644.2 C 447.6 645.7 446.1 651 445.1 655.8 C 444.1 660.6 442.3 667 441.2 670 C 440 673 438.8 677.8 438.5 680.5 C 438.1 683.2 436.9 689.1 435.8 693.4 C 434.7 697.8 433.4 703.6 433 706.4 C 429.7 726.7 428.9 730.8 428.1 733 C 427.5 734.4 426.6 741.5 426 748.9 C 425.3 756.3 424.4 763.4 423.9 764.8 C 423.4 766.1 423 769.6 423 772.6 C 423 775.6 422.6 782.2 422.1 787.3 C 418.8 819.4 419.3 900.5 423 932 C 423.4 936.1 424.3 944.5 425 950.5 C 426.7 967.7 427.7 975.1 428.9 979.8 C 429.5 982.1 430.4 987.3 431 991.3 C 433.3 1008.7 434.2 1013.9 435.9 1021 C 436.9 1025.1 438.1 1031 438.5 1034 C 438.8 1037 440.2 1042.8 441.5 1047 C 442.8 1051.1 444.6 1058.3 445.5 1063 C 446.4 1067.7 447.8 1073.5 448.5 1076 C 449.3 1078.5 450.4 1082.8 450.9 1085.5 C 451.4 1088.2 452.8 1093.7 454 1097.5 C 455.2 1101.3 457 1107.4 458 1111 C 459.1 1114.6 461.8 1122.7 464 1129 C 466.3 1135.3 468.7 1142.5 469.4 1145 C 470.2 1147.5 471.7 1151.5 472.9 1154 C 474 1156.5 475 1159.3 475 1160.3 C 475 1161.3 476.6 1165.3 478.5 1169.3 C 480.4 1173.2 482 1177.3 482 1178.2 C 482 1179.1 483.1 1182 484.5 1184.6 C 485.9 1187.2 487 1190.1 487 1191.1 C 487 1192.7 487.6 1194.2 492.1 1203.2 C 493.2 1205.2 494 1207.4 494 1208.1 C 494 1209.4 501.8 1226.3 505.1 1232 C 509.2 1239.4 519 1259.3 519 1260.5 C 519 1261.2 519.9 1262.8 520.9 1264.1 C 521.9 1265.5 525.3 1271.4 528.4 1277.3 C 531.4 1283.2 535.8 1290.7 538 1294 C 540.2 1297.2 542.5 1300.9 543 1302.2 C 543.5 1303.5 544.8 1305.6 545.8 1307 C 546.8 1308.4 549.3 1312.1 551.3 1315.2 C 559.2 1327.5 562 1331.8 568.4 1341.5 C 575.4 1352 583.3 1363.2 586.2 1366.5 C 588.6 1369.4 596.9 1380.3 600.8 1385.8 C 602.6 1388.4 606.5 1393 609.4 1396 C 612.2 1399 618.1 1406 622.5 1411.4 C 629.5 1420.2 643.1 1434.9 665.7 1458 C 674.9 1467.4 688.2 1479.8 693.8 1484.1 C 696.2 1486 702.7 1491.7 708.3 1496.8 C 713.9 1501.9 720.3 1507.3 722.5 1508.7 C 724.7 1510.2 727.9 1512.8 729.6 1514.4 C 731.4 1516.1 735.2 1519.2 738.1 1521.3 C 741.1 1523.4 746 1526.9 749 1529.2 C 752 1531.4 756.1 1534 758.1 1535.1 C 760.1 1536.1 762 1537.6 762.3 1538.4 C 762.6 1539.2 765.1 1541 767.8 1542.4 C 770.4 1543.7 773.2 1545.5 773.9 1546.4 C 774.6 1547.2 777 1548.8 779.2 1550 C 781.4 1551.1 785.3 1553.6 787.8 1555.5 C 790.3 1557.4 792.8 1559 793.3 1559 C 793.9 1559 795.3 1559.8 796.4 1560.8 C 801.7 1565.5 823.5 1577.4 861.5 1596.2 C 872.5 1601.7 883.2 1607 885.2 1608.1 C 887.2 1609.1 889.6 1610 890.5 1610 C 891.5 1610 893.6 1610.6 895.3 1611.4 C 903.7 1615.3 927.1 1624 928.9 1624 C 930.1 1624 933.1 1625.1 935.7 1626.4 C 941 1629.1 960 1635.6 967 1637.1 C 969.5 1637.6 974.1 1638.9 977.3 1640 C 980.4 1641.1 984 1642 985.3 1642 C 986.5 1642 991.5 1643.1 996.5 1644.5 C 1001.5 1645.9 1011.4 1648.2 1018.5 1649.6 C 1031.1 1652 1032.6 1652.1 1071 1652.1 C 1112.7 1652 1120 1651.6 1120 1649.4 C 1120 1647.5 1118.5 1646.9 1111.1 1645.4 C 1107.5 1644.7 1101.3 1643.2 1097.5 1642.1 C 1093.7 1640.9 1086.9 1639.3 1082.5 1638.4 C 1078.1 1637.6 1071.3 1635.9 1067.5 1634.8 C 1055.2 1631.1 1042.7 1627.9 1037.5 1627.2 C 1034.8 1626.8 1031.2 1625.7 1029.5 1624.8 C 1026.3 1623 1012 1620.4 1000.3 1619.5 C 996.3 1619.2 990 1618 986.2 1617 C 982.5 1616 976.1 1614.6 972 1614.1 C 967.9 1613.5 960.5 1611.9 955.5 1610.4 C 950.5 1609 944 1607.4 941 1606.9 C 938 1606.3 933.7 1605.1 931.5 1604.1 C 929.3 1603.1 925.7 1601.8 923.5 1601.2 C 919.1 1600.1 912 1597.8 905 1595.4 C 902.5 1594.5 898.5 1593.2 896 1592.5 C 889.7 1590.6 881 1586.8 878 1584.7 C 876.7 1583.8 874.9 1583 874 1583 C 873.2 1583 870.9 1581.9 869 1580.6 C 867.1 1579.3 860.8 1576.1 855 1573.5 C 849.2 1570.9 843.8 1568.2 843 1567.5 C 842.2 1566.9 836.8 1564 831 1561.1 C 814.3 1552.8 804.8 1547 782.9 1531.7 C 779.9 1529.7 775.1 1526.3 772.1 1524.2 C 769.1 1522.2 765.4 1519.6 764 1518.5 C 762.5 1517.4 759 1514.9 756.4 1513 C 751.9 1509.9 740.9 1501.1 731.9 1493.5 C 729.9 1491.9 726.1 1488.7 723.4 1486.5 C 711.3 1476.4 682.9 1449.1 670.5 1435.5 C 666.1 1430.7 659.1 1423.2 655 1419 C 650.9 1414.7 644.2 1406.9 640.1 1401.6 C 636 1396.3 632.4 1392 632 1392 C 631.6 1392 630.8 1390.9 630.2 1389.5 C 629.6 1388.2 628.4 1386.3 627.5 1385.3 C 620.5 1377.3 611 1365.4 608.7 1361.8 C 607.2 1359.4 603.9 1354.8 601.5 1351.5 C 599.1 1348.2 594.5 1341.5 591.3 1336.5 C 588.2 1331.5 584.4 1325.9 582.9 1324 C 581.4 1322.1 579.3 1319.1 578.3 1317.4 C 577.3 1315.7 574.1 1310.8 571.1 1306.4 C 568.2 1302.1 565.4 1297.5 564.9 1296.2 C 564.4 1294.9 562.6 1291.9 561 1289.5 C 559.3 1287.1 558 1284.5 558 1283.7 C 558 1282.9 557.1 1281.5 556 1280.5 C 554.2 1278.8 548.5 1268.8 540.1 1252.5 C 538.1 1248.7 535.9 1244.6 535.3 1243.5 C 534.1 1241.4 530.3 1233.8 524.3 1221.5 C 522.4 1217.7 520.5 1213.8 520 1213 C 516.8 1207.9 509 1191.5 509 1190 C 509 1189.1 508.1 1187.1 507 1185.7 C 505.9 1184.3 505 1182.3 505 1181.3 C 505 1180.2 504.3 1178.5 503.5 1177.4 C 502.7 1176.4 502 1174.6 502 1173.6 C 502 1172.5 501.1 1169.8 500.1 1167.6 C 499 1165.3 496.8 1159.5 495.1 1154.5 C 493.4 1149.5 490.8 1142.3 489.4 1138.5 C 488 1134.7 486.2 1129.5 485.5 1127 C 484.8 1124.5 483 1119.8 481.6 1116.6 C 480.2 1113.3 478.3 1107.7 477.5 1104.2 C 476.6 1100.6 475.4 1097 474.8 1096.2 C 474.1 1095.5 473.3 1092.7 472.9 1090.2 C 471.9 1083.9 469.6 1075.3 467.6 1070.8 C 466.7 1068.7 466 1065.5 466 1063.7 C 466 1061.8 465.3 1058.7 464.5 1056.7 C 463.7 1054.8 462.2 1048.5 461.1 1042.8 C 460 1037.2 458.5 1029.6 457.6 1026 C 456.7 1022.4 455.2 1013.4 454.1 1006 C 453 998.6 451.7 991.1 451.1 989.5 C 450.6 987.9 449.6 981.3 449 975 C 446.6 948.4 445.9 942.4 444.9 937.1 C 442 922 441.3 823.3 444 815.4 C 444.9 812.6 447.2 793.4 449 772.1 C 449.5 766.4 450.6 759.4 451.5 756.6 C 452.3 753.8 453.7 745.4 454.5 738 C 455.3 730.6 456.9 719.5 458 713.5 C 459.1 707.5 460.5 699 461.1 694.7 C 461.6 690.3 462.5 684.9 463.1 682.7 C 463.7 680.4 464.8 674.5 465.5 669.7 C 467.3 658.1 468.8 651.6 471.1 645.5 C 472.1 642.7 473 639.1 473 637.4 C 473 634.1 479.6 614 482.8 607.5 C 483.9 605.3 486.2 600.1 488 596 C 489.8 591.9 493.5 583.9 496.1 578.3 C 498.8 572.6 501 567.4 501 566.8 C 501 566.1 502.1 563.5 503.5 561.1 C 504.9 558.8 506 556.4 506 556 C 506 555.3 514.6 539.5 518 534 C 520.4 530.2 529.7 513.3 531.8 509.2 C 533.1 506.7 535 503.5 536.1 502.2 C 537.1 500.8 538 498.9 538 497.9 C 538 496.9 538.9 495.6 540 495 C 541.1 494.4 542 493.2 542 492.2 C 542 491.3 542.9 489.1 544.1 487.5 C 545.2 485.9 547.2 482.5 548.6 480 C 553.6 470.9 554.8 469.2 567.5 451.7 C 570.8 447.2 574.8 441.6 576.5 439.3 C 578.1 437.1 581.8 432.5 584.5 429.2 C 589.7 423 594.7 416.2 596.6 412.9 C 597.2 411.8 598.5 410.2 599.4 409.2 C 600.3 408.3 603 404.8 605.5 401.5 C 611.6 393.1 612.9 391.7 618.3 385.7 C 621 382.9 624.8 378.2 627 375.4 C 632.5 368.1 644.2 354.6 652.5 346 C 656.5 341.9 660.9 337.1 662.3 335.5 C 663.7 333.9 668.1 328.9 672.1 324.5 C 676.1 320.1 680.5 315.2 681.9 313.5 C 683.4 311.9 687 308 690 304.9 C 693 301.8 697.1 297.4 699 295 C 700.9 292.7 707.2 285.9 712.9 279.9 C 724.1 268.3 727 264.5 727 261.8 C 727 258.9 725.6 259.1 721.6 262.6 M 541.9 264.9 C 537.1 267.9 531.8 274.1 526.1 283.4 C 522.3 289.5 520.5 293.9 518.4 302 C 517.6 305 516.3 309.8 515.5 312.6 C 513.8 318.5 513.5 344.6 515 352 C 515.6 354.5 516.6 360.4 517.4 365.1 C 518.1 369.8 519.2 374.5 519.8 375.6 C 520.3 376.6 521.3 380 521.8 383 C 522.4 386 524.1 391.2 525.6 394.5 C 527.2 397.8 529.1 402.5 530 405 C 531.3 408.9 531.9 409.5 534.4 409.5 C 536.2 409.5 537.7 408.8 538.4 407.5 C 539 406.4 540.6 403.7 542 401.5 C 543.5 399.3 545.5 395.5 546.5 393 C 547.5 390.5 549.1 387.4 550 386 C 555.1 378.2 563.7 356 566.1 344.5 C 569.8 326.7 570.3 322.6 569.7 309 C 569.1 295.1 567.8 289.3 563 278.5 C 558.6 268.8 552.3 262 547.8 262 C 547.1 262 544.4 263.3 541.9 264.9 M 1302 263.6 C 1302 265.6 1304.7 268.8 1315.9 280.5 C 1320.6 285.4 1325 290.3 1325.6 291.3 C 1327.2 294 1348.8 317.8 1354.4 323 C 1357.1 325.5 1360.1 328.8 1361.1 330.4 C 1362 332 1368.4 339.2 1375.3 346.4 C 1382.1 353.6 1390.6 363 1394.1 367.4 C 1404.5 380.1 1415.2 392.4 1416.7 393.3 C 1417.4 393.7 1418 394.9 1418 396 C 1418 397 1418.8 398.1 1419.8 398.4 C 1420.7 398.7 1422.2 400.1 1423 401.4 C 1427 407.8 1439.8 424.8 1447.8 434.3 C 1451.3 438.4 1455.4 443.8 1456.9 446.1 C 1458.4 448.5 1460.4 451.1 1461.3 451.9 C 1462.2 452.6 1463 453.8 1463 454.4 C 1463 455 1464.3 456.8 1466 458.3 C 1467.7 459.9 1469 461.7 1469 462.2 C 1469 462.8 1470.1 464.8 1471.5 466.6 C 1472.9 468.4 1474 470.3 1474 470.7 C 1474 471.2 1475.2 473.2 1476.6 475.1 C 1478 476.9 1480.3 480.5 1481.6 483 C 1483 485.5 1485.1 489.3 1486.5 491.5 C 1487.8 493.7 1489.7 497.1 1490.8 499 C 1491.8 500.9 1494.1 504.9 1495.8 507.8 C 1497.6 510.7 1499 513.3 1499 513.7 C 1499 514 1501.5 518.5 1504.6 523.6 C 1513.4 538.4 1535.7 582.1 1537.5 588.2 C 1538.3 590.8 1543.1 601.6 1545.9 607 C 1546.9 608.9 1548.5 613 1549.4 616 C 1550.4 619 1551.7 622.7 1552.5 624.1 C 1553.3 625.5 1554.8 630.2 1556 634.6 C 1557.2 638.9 1558.7 644.8 1559.4 647.5 C 1560.2 650.2 1561.3 655.2 1561.9 658.5 C 1562.6 661.8 1563.5 665.9 1564.1 667.6 C 1564.6 669.3 1565.7 675.6 1566.5 681.6 C 1567.3 687.6 1568.4 694.8 1569.1 697.5 C 1570.4 703.7 1571.6 711.6 1573.5 728.8 C 1574.3 736.1 1575.4 742.9 1575.9 743.9 C 1576.4 744.8 1577.4 750.6 1578 756.6 C 1578.6 762.6 1579.5 769.8 1580 772.5 C 1581.2 779.3 1584.1 800.5 1584.6 806 C 1584.8 808.5 1585.7 823.6 1586.6 839.6 C 1588 864.5 1588.1 872.5 1587.1 894.1 C 1585.2 934.8 1584 955.4 1583.4 957.3 C 1582.3 960.7 1580 977.3 1578.6 991.5 C 1577.8 999.2 1576.7 1006.9 1576.1 1008.5 C 1575.5 1010.1 1574.3 1015.8 1573.5 1021 C 1570.5 1038.7 1569.9 1041.2 1568.6 1044.4 C 1567.8 1046.2 1566.9 1051 1566.5 1055.1 C 1566.1 1059.2 1565.2 1063.6 1564.5 1065 C 1563.8 1066.4 1563 1069.8 1562.7 1072.6 C 1562.4 1075.4 1560.9 1081 1559.5 1085.1 C 1558 1089.2 1556.4 1094.3 1556 1096.5 C 1555.1 1100.9 1552.9 1107.5 1549.3 1116.3 C 1548.1 1119.5 1547 1123 1547 1124.1 C 1547 1125.2 1545.9 1128.3 1544.5 1131 C 1543.1 1133.7 1542 1137.1 1542 1138.6 C 1542 1140 1541.3 1142.4 1540.5 1143.8 C 1539.7 1145.3 1537.6 1150.3 1535.9 1155 C 1534.3 1159.7 1531.7 1166.4 1530.4 1170 C 1529 1173.6 1527.3 1177.9 1526.7 1179.5 C 1526 1181.2 1524.7 1183.8 1523.7 1185.3 C 1522.8 1186.7 1522 1188.8 1522 1189.9 C 1522 1191 1521.6 1192.1 1521.1 1192.5 C 1520.6 1192.8 1519.6 1194.7 1518.9 1196.8 C 1518.3 1198.8 1517.2 1201.2 1516.5 1202 C 1515.8 1202.8 1514.9 1204.6 1514.5 1206 C 1513.8 1208.4 1507 1223.3 1504.7 1227.5 C 1504.1 1228.6 1501.9 1232.9 1499.7 1237 C 1490.2 1255.4 1487.3 1260.8 1484.8 1264.5 C 1483.2 1266.7 1482 1269.1 1482 1269.9 C 1482 1270.7 1481.4 1272.1 1480.6 1272.9 C 1479.1 1274.7 1474.4 1283.1 1465.8 1300 C 1462.5 1306.3 1459.3 1312 1458.7 1312.5 C 1456.8 1314.1 1449.6 1322.4 1448.3 1324.6 C 1447.6 1325.6 1445.5 1328.8 1443.5 1331.5 C 1441.6 1334.2 1439.2 1338.1 1438.1 1340.1 C 1437 1342 1435.4 1344.2 1434.6 1344.9 C 1433.7 1345.7 1433 1346.8 1433 1347.4 C 1433 1348.1 1431.5 1350.4 1429.7 1352.6 C 1427.9 1354.7 1425.9 1357.7 1425.1 1359.1 C 1424.4 1360.5 1420.5 1365.9 1416.4 1371 C 1412.3 1376.1 1409 1380.6 1409 1381.1 C 1409 1381.5 1406.6 1384.3 1403.8 1387.3 C 1398.8 1392.4 1391.7 1401.3 1389.5 1405.1 C 1389 1406.1 1385.1 1410.4 1381 1414.8 C 1368.3 1428.2 1358.6 1439.1 1356.7 1442.1 C 1355.7 1443.6 1354 1445.2 1353 1445.5 C 1351.9 1445.8 1350.3 1447.4 1349.3 1449 C 1348.4 1450.6 1346.9 1452.2 1345.9 1452.7 C 1345 1453.1 1336 1461.5 1326.1 1471.2 C 1316.1 1481 1305.4 1490.8 1302.2 1493.2 C 1299.1 1495.5 1292.2 1501 1287 1505.4 C 1275.7 1515 1277.4 1513.7 1267.5 1520.5 C 1263.1 1523.5 1255.1 1529 1249.7 1532.7 C 1234.5 1543.2 1210.8 1558 1209.2 1558 C 1208.8 1558 1206.1 1559.6 1203.3 1561.5 C 1200.4 1563.4 1197.5 1565 1196.7 1565 C 1196 1565 1195 1565.4 1194.4 1566 C 1193.9 1566.5 1185.5 1571 1175.7 1575.9 C 1166 1580.8 1157.3 1585.6 1156.4 1586.4 C 1155.6 1587.3 1153.9 1588 1152.7 1588 C 1151.5 1588 1149.2 1588.7 1147.5 1589.6 C 1143.6 1591.6 1128.3 1597.2 1121.5 1599 C 1119.8 1599.5 1116 1600.8 1113 1602 C 1107.4 1604.2 1097.7 1607.1 1088 1609.6 C 1085 1610.3 1079.3 1611.9 1075.5 1613.1 C 1071.7 1614.3 1065.1 1615.9 1061 1616.6 C 1056.9 1617.4 1052.2 1618.4 1050.5 1619 C 1048.8 1619.5 1045.1 1620.2 1042.2 1620.6 C 1039.4 1621 1037 1621.6 1037 1622.1 C 1037 1624.6 1042.5 1625 1073.4 1625 L 1105.8 1625 1114.7 1621.9 C 1119.5 1620.2 1124.8 1618.2 1126.5 1617.5 C 1132.9 1614.7 1142.7 1610.8 1146 1609.8 C 1147.9 1609.3 1150 1608.4 1150.5 1608 C 1151 1607.6 1155.3 1605.6 1159.9 1603.6 C 1164.5 1601.6 1169.4 1599 1170.8 1598 C 1172.2 1596.9 1174.1 1596 1175.1 1596 C 1176 1596 1177.5 1595.4 1178.3 1594.6 C 1179 1593.8 1182.5 1591.8 1186.1 1590.1 C 1189.6 1588.3 1198.3 1583.8 1205.5 1580 C 1212.7 1576.2 1220.4 1572.1 1222.6 1571 C 1224.9 1569.9 1227.3 1568.3 1228.1 1567.4 C 1228.8 1566.6 1231.5 1564.8 1234 1563.5 C 1236.6 1562.2 1240 1560 1241.6 1558.7 C 1243.2 1557.4 1246.1 1555.5 1248 1554.5 C 1249.9 1553.5 1252.9 1551.5 1254.6 1550.1 C 1257.5 1547.7 1260.6 1545.7 1267 1541.9 C 1268.5 1541.1 1272.6 1538.1 1276.1 1535.4 C 1279.6 1532.7 1284.3 1529.2 1286.5 1527.7 C 1293.9 1522.6 1297.5 1519.9 1304.9 1513.7 C 1308.9 1510.3 1313.6 1506.4 1315.4 1505 C 1326.3 1496.4 1354.9 1470.2 1367 1457.6 C 1371.7 1452.7 1380 1444.2 1385.5 1438.6 C 1391.1 1433.1 1398.9 1424.5 1403 1419.5 C 1407.1 1414.6 1414.9 1405.4 1420.2 1399.2 C 1425.6 1393 1430 1387.5 1430 1387 C 1430 1386.5 1432.7 1383.1 1436 1379.3 C 1439.3 1375.6 1442 1372.1 1442 1371.7 C 1442 1371.3 1443.9 1368.6 1446.1 1365.7 C 1448.4 1362.9 1450.6 1359.6 1451 1358.5 C 1451.4 1357.4 1454 1353.7 1456.6 1350.3 C 1459.3 1346.9 1462.4 1342.7 1463.5 1341.1 C 1465.5 1338.1 1470.7 1330.6 1477.1 1321.5 C 1479 1318.8 1481.4 1315 1482.2 1313.2 C 1483.1 1311.4 1487.4 1304.1 1491.7 1297 C 1496 1289.8 1500.6 1281.8 1502 1279.2 C 1517.2 1250.9 1517.3 1250.7 1526.2 1232 C 1535.9 1211.8 1537 1209.4 1537 1208.3 C 1537.1 1207.9 1537.9 1205.7 1539 1203.5 C 1540.1 1201.3 1541 1198.8 1541 1198 C 1541 1197.2 1541.7 1195.6 1542.5 1194.6 C 1543.3 1193.6 1544.6 1190.4 1545.5 1187.6 C 1546.4 1184.8 1547.9 1180.7 1549 1178.5 C 1550 1176.3 1551.7 1171.8 1552.6 1168.5 C 1553.6 1165.2 1554.9 1161.6 1555.7 1160.5 C 1556.4 1159.4 1557 1157.6 1557 1156.5 C 1557 1155.4 1557.9 1152.6 1559 1150.5 C 1560.1 1148.3 1563.3 1139.5 1566.2 1131 C 1569 1122.5 1572.8 1110.9 1574.6 1105.3 C 1576.5 1099.8 1578 1094.3 1578 1093.1 C 1578 1092 1578.8 1088.9 1579.9 1086.3 C 1580.9 1083.7 1582.5 1077.5 1583.4 1072.5 C 1584.4 1067.5 1586 1060.9 1587.1 1057.7 C 1588.1 1054.6 1589 1050.1 1589 1047.7 C 1589.1 1045.4 1589.8 1040.8 1590.6 1037.5 C 1592.4 1030.6 1593.6 1024.9 1598.2 999.5 C 1598.7 996.8 1599.5 990 1600 984.5 C 1600.5 979 1601.6 971.6 1602.4 968 C 1605.1 956.5 1606.1 947.2 1609 905.6 C 1612 863.8 1611.6 836.5 1607.5 784 C 1606.7 773.4 1604.1 754.7 1602.4 747 C 1601.7 743.4 1600.6 736.2 1600 731 C 1599.5 725.8 1598.6 719.9 1598.1 718 C 1597.6 716.1 1596.5 710 1595.5 704.5 C 1594.6 699 1593.1 692.2 1592.3 689.5 C 1591.5 686.8 1590.2 681.1 1589.4 677 C 1587.8 668.1 1585.5 658.2 1583.4 652 C 1582.6 649.5 1582 646.7 1582 645.7 C 1582 644.7 1581.2 642.3 1580.1 640.2 C 1579.1 638.2 1577.9 634.5 1577.5 632.1 C 1577.1 629.6 1575.5 624.4 1573.9 620.6 C 1572.3 616.7 1570.5 611.9 1570 610 C 1569.5 608.1 1567.5 602.5 1565.5 597.5 C 1562 588.5 1560.7 585.7 1555.7 574.7 C 1554.2 571.6 1553 568.2 1553 567.2 C 1553 566.3 1551.4 562.4 1549.5 558.6 C 1547.6 554.7 1546 550.9 1546 550 C 1546 549.1 1544.9 546.9 1543.5 545 C 1542.1 543.1 1540.1 539.3 1539.1 536.6 C 1536.8 530.6 1533.3 523.8 1526 511.5 C 1523.1 506.6 1519.1 499.4 1517.1 495.5 C 1515.1 491.6 1511.8 486 1509.7 482.9 C 1507.7 479.8 1506 477 1506 476.5 C 1506 476.1 1504.9 474.5 1503.5 472.8 C 1502.1 471.2 1501 469.2 1501 468.4 C 1501 467.6 1500.6 467 1500.1 467 C 1499.6 467 1497.8 464.6 1496.1 461.8 C 1494.4 458.9 1491.2 454 1489 451 C 1486.8 448 1485 445.2 1485 444.7 C 1485 444.3 1482 440 1478.2 435.2 C 1474.5 430.4 1470.2 424.6 1468.6 422.2 C 1467 419.8 1462.5 414.4 1458.6 410 C 1451.9 402.6 1443.8 392.2 1441.4 387.9 C 1438.2 382.3 1375.3 318.9 1363.5 309.4 C 1358.5 305.5 1350.9 299 1346.5 295 C 1342.1 291 1335.8 285.7 1332.5 283.2 C 1329.2 280.7 1324.5 276.9 1322.2 274.8 C 1319.8 272.8 1315.5 269.8 1312.6 268.2 C 1309.8 266.5 1306.8 264.5 1306.1 263.6 C 1304.4 261.5 1302 261.5 1302 263.6 M 1477.4 266.2 C 1474.9 267 1473.5 268.8 1469.7 276.3 C 1462.3 291 1459.9 307.6 1462 330.1 C 1463.2 342.8 1465 351.4 1468.4 360.5 C 1469.2 362.7 1469.9 365.3 1470 366.2 C 1470 367.8 1471.6 371.5 1475.5 379 C 1476.2 380.4 1477.3 383.3 1478 385.5 C 1478.7 387.7 1480.1 390.6 1481.1 391.9 C 1482.2 393.2 1483 395.1 1483 396 C 1483 397 1483.7 398.3 1484.6 399.1 C 1485.5 399.8 1487.5 403 1489.1 406.2 C 1490.7 409.5 1492.8 412.4 1493.7 412.7 C 1495.7 413.5 1500.7 408.2 1501.6 404.3 C 1502 402.7 1503.9 397 1506 391.5 C 1513.6 371.3 1516.3 356.9 1516.4 336 C 1516.4 320.7 1514.9 309.8 1512 304 C 1511.1 302.1 1510 299.2 1509.6 297.7 C 1508.8 294.5 1502.2 283.7 1494.5 273.1 C 1492.2 269.9 1484.6 265 1482.2 265.1 C 1481.3 265.2 1479.1 265.7 1477.4 266.2 M 1019 301 C 1010.7 301.8 1003.2 303.5 998.3 305.6 C 996.6 306.4 994.9 307 994.6 307 C 993.1 307 969.1 319.1 966.1 321.4 C 964.2 322.8 962 324 961.3 324 C 960.6 324 959.5 325.1 958.9 326.4 C 958.3 327.7 956.7 329.3 955.4 329.9 C 950.1 332.3 923.8 358.5 917.8 367.3 C 913.1 374.1 908.1 380.9 900.8 390 C 898.1 393.2 896 396.3 896 396.8 C 896 397.3 895.1 398.5 894.1 399.4 C 893 400.4 891.2 403.2 890 405.8 C 888.8 408.4 885.9 414.1 883.5 418.5 C 881.1 422.9 877.9 429 876.4 432 C 874.8 435 872.5 439.2 871.3 441.2 C 867.8 446.9 868.2 451.6 872.9 458.1 C 875 461.1 879.4 468.4 882.5 474.5 C 885.7 480.6 889.1 486.6 890 488 C 891 489.4 892.1 491.6 892.5 493 C 893.2 495.1 896.5 501.3 900 507 C 901.6 509.5 918.5 545.2 920.2 549.5 C 921.1 551.7 924.1 558.8 926.9 565.3 C 929.7 571.7 932 577.6 932 578.3 C 932 578.9 933.1 581.3 934.5 583.5 C 935.8 585.7 937 588.2 937 589.1 C 937 589.9 939.5 596.4 942.6 603.6 C 949.5 619.6 955 633.6 955 635.1 C 955 635.8 956.3 639.7 957.9 643.9 C 959.5 648.1 961.8 654.9 963.1 659 C 964.3 663.1 966.1 668.3 967.1 670.5 C 968 672.7 969.1 676.3 969.5 678.5 C 969.9 680.7 970.8 683.6 971.5 685 C 972.2 686.4 974.2 692.2 976 698 C 977.7 703.8 979.6 709.9 980.2 711.5 C 980.7 713.1 982 717.6 983 721.5 C 984 725.4 985.8 731.6 987 735.5 C 988.1 739.4 989.5 744.4 990 746.8 C 990.5 749.1 991.3 751.8 991.8 752.8 C 992.3 753.7 993 756.5 993.4 759 C 993.7 761.5 994.7 765.5 995.5 768 C 997.1 773 1004.6 802.9 1006 810 C 1006.5 812.5 1007.6 817 1008.4 820 C 1009.2 823 1010.9 830 1012 835.5 C 1013.2 841 1014.6 847.3 1015.2 849.5 C 1015.7 851.7 1016.8 857.2 1017.5 861.7 C 1018.2 866.2 1019.1 870.4 1019.5 871 C 1019.8 871.5 1020.5 876.1 1021.1 881 C 1021.6 886 1022.6 893.3 1023.5 897.3 C 1025.9 909 1030.2 942.1 1032 961.6 C 1032.5 967.7 1033.6 975.6 1034.5 979.1 C 1035.3 982.6 1036 989.1 1036 993.5 C 1036 997.9 1036.9 1007.6 1038 1015 C 1039.1 1022.4 1040.3 1035.6 1040.7 1044.3 C 1041 1053 1041.6 1060.3 1042 1060.5 C 1042.3 1060.7 1043.6 1058.1 1044.9 1054.7 C 1046.2 1051.3 1048.1 1046.4 1049.1 1043.8 C 1050.2 1041.2 1051 1038.3 1051 1037.2 C 1051 1036.1 1051.6 1034.7 1052.4 1034.1 C 1053.2 1033.4 1054.2 1031.5 1054.5 1029.9 C 1054.9 1028.3 1056.7 1023.4 1058.6 1019.1 C 1060.5 1014.7 1062 1010.4 1062 1009.3 C 1062 1008.3 1062.6 1006.5 1063.4 1005.4 C 1064.2 1004.3 1065.8 1000.7 1067 997.4 C 1068.2 994.2 1070.3 988.6 1071.7 985 C 1073 981.4 1074.5 977.1 1074.9 975.5 C 1075.4 973.9 1076.5 971.1 1077.4 969.5 C 1078.3 967.9 1079 965.7 1079 964.8 C 1079 963.8 1079.6 961.6 1080.4 959.8 C 1081.2 958 1082.9 953.1 1084.1 949 C 1085.3 944.9 1087.6 937.7 1089.2 933 C 1090.9 928.3 1093 921.8 1094 918.5 C 1095 915.2 1096.3 911.1 1096.8 909.5 C 1099 903.3 1102.9 890.2 1105 882 C 1106.2 877.3 1108.7 868.9 1110.6 863.2 C 1112.5 857.5 1114.3 851 1114.6 848.7 C 1114.9 846.4 1115.7 842.9 1116.5 841 C 1117.9 837.2 1119.9 830.3 1122.6 820 C 1123.5 816.4 1125.8 807.9 1127.7 801 C 1131.4 787.2 1136.7 766 1140.1 750.5 C 1141.3 745 1142.8 738.7 1143.5 736.5 C 1144.2 734.3 1145.3 729.4 1146 725.5 C 1146.6 721.6 1147.7 716.9 1148.5 715 C 1149.2 713.1 1150.1 708.6 1150.5 705 C 1150.9 701.4 1151.6 697.8 1152.1 696.9 C 1152.6 696 1153.4 691.9 1154 687.9 C 1154.6 683.8 1155.6 679.1 1156.1 677.4 C 1156.6 675.7 1157.7 670.7 1158.5 666.4 C 1159.2 662 1161 653.3 1162.4 647 C 1163.8 640.7 1165.8 631.2 1166.9 626 C 1168 620.8 1169.6 614.2 1170.5 611.5 C 1171.3 608.8 1172 604.8 1172 602.8 C 1172 600.8 1172.5 597.9 1173.1 596.3 C 1173.7 594.8 1174.6 589.9 1175 585.4 C 1175.4 581 1176.5 575.2 1177.4 572.6 C 1178.3 570.1 1179 566.1 1179 563.9 C 1179 561.6 1179.6 557.5 1180.4 554.7 C 1181.2 551.8 1182.1 545.7 1182.5 541 C 1182.8 536.3 1183.5 531.1 1184 529.5 C 1184.6 527.9 1185.7 520.9 1186.5 514 C 1187.4 507.1 1188.6 498.3 1189.2 494.3 C 1190.2 488.2 1190.1 486.6 1188.8 483.3 C 1187.9 481.2 1186.9 477.5 1186.5 475.2 C 1186.2 472.8 1185.1 469.1 1184 466.9 C 1182.9 464.8 1182 461.8 1182 460.2 C 1182 458.6 1181.3 456.7 1180.5 456 C 1179.7 455.3 1179 453.7 1179 452.3 C 1179 448.8 1175.2 439.8 1163.2 415 C 1154.1 396.3 1142.3 375.6 1137.5 370 C 1136.3 368.6 1134.1 365.5 1132.6 363.1 C 1129.3 357.9 1116.9 343.8 1108.5 335.7 C 1105.2 332.5 1099 327.4 1094.8 324.4 C 1090.5 321.4 1086.8 318.5 1086.5 317.9 C 1085.3 316.1 1070.6 309.3 1061 306.2 C 1050.7 302.8 1035.9 299.9 1030.1 300.2 C 1028.1 300.2 1023.1 300.6 1019 301 M 444.8 389.2 C 440.9 393.5 435 404.6 432.5 412.4 C 431.8 414.7 430.3 418.9 429.2 421.7 C 426.7 428.3 425.6 443.1 426.9 453 C 429.6 473.2 434.4 487.8 445.2 509.4 C 453 524.9 458.8 534 461.1 534 C 463.7 534 466.8 529.4 467.6 524.4 C 467.9 522 469.1 518.9 470.1 517.6 C 471.2 516.3 472 513.8 472 512.1 C 472 510.4 472.9 506.7 473.9 503.8 C 476.8 496.1 478.8 487.5 479.9 478.5 C 480.5 474.1 481.4 468.5 481.9 466 C 483.7 457.9 483.1 445.8 480.4 432.3 C 478.9 425.3 477.5 418.3 477.3 416.8 C 477 415.3 475.9 413.3 474.9 412.4 C 473.9 411.5 473 409.4 473 407.9 C 473 406.3 472.2 404.3 471.2 403.3 C 470.2 402.3 468.6 400.1 467.5 398.5 C 466.5 396.9 463.6 393.1 461.1 390.2 C 457.1 385.6 456.2 385 452.7 385 C 449.4 385 448.2 385.6 444.8 389.2 M 1573.3 389 C 1572.1 389.5 1570.3 391.1 1569.3 392.7 C 1568.3 394.2 1566.5 396.5 1565.3 397.8 C 1564.2 399 1562.4 401.8 1561.4 403.8 C 1560.5 405.8 1558.6 408.8 1557.4 410.3 C 1556.1 411.9 1555 413.8 1555 414.7 C 1555 415.5 1554.1 417.9 1553.1 419.9 C 1550.1 425.3 1548.9 432.9 1548.3 449 C 1547.7 464.4 1549 480 1551.5 489.6 C 1552.4 492.9 1554.4 500.5 1556 506.5 C 1558.6 516.3 1559.8 520 1562.9 527.5 C 1563.4 528.6 1564.2 530.7 1564.9 532.2 C 1565.7 534.4 1566.6 535 1568.9 535 C 1571.4 535 1572.5 534 1576 528.8 C 1578.3 525.4 1580.9 521.3 1581.6 519.6 C 1582.4 517.9 1583.4 515.8 1583.9 515 C 1585.8 511.9 1588.9 505.1 1589.9 501.9 C 1590.4 500 1592.1 495.4 1593.6 491.5 C 1600.9 472.3 1604.7 446.6 1601.9 434 C 1601.4 431.5 1600.6 427 1600.1 424 C 1599.6 421 1598.2 416.2 1596.9 413.5 C 1595.7 410.8 1593.5 406 1592.1 403 C 1590.7 400 1587.5 395.4 1584.9 392.8 C 1580.3 387.9 1577.9 387.1 1573.3 389 M 1261.6 398.1 C 1261.3 399.8 1261 403.9 1261 407.1 C 1261 410.3 1260.5 414.1 1259.9 415.7 C 1259.3 417.2 1258.2 424.8 1257.4 432.5 C 1256.7 440.2 1255.6 449 1255.1 452 C 1253.5 461.4 1251.9 473.1 1251 482.4 C 1250.5 487.3 1249.8 492 1249.5 492.8 C 1249.2 493.7 1247.8 500.9 1246.5 508.9 C 1242 535.7 1240.6 544.9 1237.9 564.5 C 1237.3 568.9 1236.4 573.9 1235.9 575.6 C 1235.4 577.3 1234.6 582.1 1234 586.4 C 1233.5 590.7 1232.8 594.5 1232.6 594.9 C 1232.3 595.3 1231.4 600.1 1230.5 605.6 C 1229.7 611 1228.1 619.9 1227 625.2 C 1225.9 630.6 1224.1 639.6 1223 645.2 C 1220.3 658.9 1217.1 673.3 1215.4 679.7 C 1214.6 682.5 1213.7 687.7 1213.4 691.2 C 1213 694.7 1212.2 698.6 1211.5 700 C 1210.8 701.4 1210 705 1209.6 708 C 1209.2 711 1208.2 715.5 1207.4 718 C 1206.6 720.5 1205.6 725.2 1205.1 728.5 C 1203.9 736.7 1201.2 749.8 1199.9 753.7 C 1199.4 755.4 1198.3 760.2 1197.6 764.2 C 1196.8 768.2 1195.2 775.1 1194 779.5 C 1192.8 783.9 1191.2 790 1190.5 793 C 1188.3 802.1 1183.2 820.2 1181.6 824.9 C 1180.7 827.3 1180 830.3 1180 831.7 C 1180 833 1179.1 835.8 1178 838 C 1176.9 840.2 1176 842.8 1176 843.9 C 1176 845 1175.4 847.4 1174.6 849.2 C 1173.1 852.6 1169.3 867.2 1166.1 882 C 1165.1 886.7 1163.8 891.9 1163.2 893.5 C 1162.7 895.1 1161.5 898.8 1160.5 901.5 C 1159.6 904.2 1158.4 908.8 1157.9 911.5 C 1157.4 914.2 1156.3 917.9 1155.6 919.5 C 1153.8 923.5 1152.3 928.1 1150.1 936 C 1149.1 939.6 1145.9 949 1143.1 957 C 1140.3 965 1136.3 976 1134.4 981.5 C 1132.4 987 1130.5 993.1 1130 995 C 1129.6 996.9 1128.5 999.9 1127.6 1001.5 C 1126.7 1003.1 1126 1005.2 1126 1006 C 1126 1006.8 1125.1 1009.7 1124.1 1012.5 C 1123 1015.2 1121 1020.9 1119.5 1025 C 1115.1 1037.2 1113.9 1040.2 1111.4 1045.7 C 1110.1 1048.5 1109 1051.6 1109 1052.4 C 1109 1053.3 1108.1 1055.4 1107 1057.2 C 1105.9 1059 1105 1061.2 1105 1062.1 C 1105 1063 1103.9 1065.9 1102.5 1068.5 C 1101.2 1071.2 1099.8 1074.8 1099.4 1076.4 C 1099.1 1078.1 1098 1081.1 1097 1083 C 1092.7 1091.6 1089 1100.1 1089 1101.5 C 1089 1102.4 1088.1 1104.8 1087.1 1106.8 C 1086 1108.8 1084.7 1111.6 1084.1 1113 C 1083.5 1114.4 1082.6 1116.2 1082 1117 C 1080.7 1119 1071 1139.5 1071 1140.3 C 1071 1141.1 1066.4 1151.5 1064.1 1156 C 1063.1 1157.9 1061.7 1161.2 1061.1 1163.2 C 1060.4 1165.2 1059.2 1167.4 1058.4 1168 C 1057.7 1168.7 1057 1169.9 1057 1170.7 C 1057 1172.3 1048.1 1188.7 1042.2 1198 C 1039.9 1201.6 1037.7 1205.2 1037.3 1206 C 1037 1206.8 1035.6 1208.8 1034.3 1210.3 C 1033 1211.9 1032 1213.8 1032 1214.6 C 1032 1216.9 1024.1 1223.9 1018.5 1226.6 C 1012.2 1229.5 1009.1 1229.6 999.9 1227.1 C 989 1224 984.3 1219.6 979.8 1208 C 977.6 1202.5 977.6 1198.1 979.4 1186.4 C 985 1151.8 984.8 1057.7 979 1007 C 978.5 1002.3 977.6 993.8 977.1 988 C 975.1 966.6 973 949.4 972 947.2 C 971.5 945.9 971 942.6 971 939.7 C 971 936.8 970.3 931.7 969.5 928.2 C 968.7 924.8 967.5 918.3 967 913.7 C 965.2 899.6 961.9 881.5 959.5 872.5 C 958.8 869.8 957.7 864.8 957.1 861.5 C 955 849.2 953.3 841.4 952.3 839.5 C 951.7 838.4 950.9 834.9 950.5 831.7 C 950.2 828.5 949.2 824.3 948.4 822.5 C 947.6 820.6 947 817.8 947 816.2 C 947 814.7 946.3 811 945.4 808 C 944.6 805 943.4 799.6 942.9 796 C 942.3 792.4 941.2 788.5 940.4 787.3 C 939.6 786.1 939 783.6 939 781.8 C 938.9 778 935.9 766 933 758.2 C 931.9 755.3 931 752.2 931 751.2 C 931 750.3 930.1 747.3 929.1 744.5 C 928.1 741.8 925.7 734.8 924 729 C 922.2 723.2 919.2 713.8 917.4 708 C 915.5 702.2 913.1 694.4 911.9 690.5 C 910.7 686.6 909.2 682.1 908.5 680.5 C 907.9 678.9 905.7 672.1 903.6 665.5 C 899.7 652.8 896 642.5 892.8 635 C 889.8 628.1 886 619.8 884.4 616.8 C 883.6 615.4 883 613.6 883 613 C 883 611.5 874.8 592 872 586.8 C 870.9 584.8 870 582.5 870 581.8 C 870 581.1 868.2 576.8 866 572.2 C 863.8 567.6 862 563.7 862 563.5 C 862 562.2 852.9 544 852 543.5 C 851.5 543.2 851 542.2 851 541.4 C 851 539.6 843.6 524.4 841.7 522.2 C 840.4 520.7 835 511 829.7 500.5 C 828.6 498.3 826.8 495.6 825.8 494.4 C 824.8 493.3 822.9 490.5 821.7 488.3 C 818.1 481.8 813.8 475.2 809.5 469.8 C 807.3 467.1 804.4 463.2 803 461.1 C 797.1 452.6 793.5 448.2 787.1 441.6 C 780 434.2 765.5 421 764.6 421 C 764.3 421 762.2 419.7 759.8 418.1 C 750.1 411.7 736.7 409.5 729.3 413.3 C 725.1 415.5 721.9 423.8 720 437.5 C 719.5 440.8 718.7 445.1 718.1 447 C 717.6 448.9 716.2 458.6 715.1 468.5 C 714 478.4 712.9 488.5 712.6 491 C 710.2 512 706.2 532.7 702.9 541.5 C 701.9 544.3 701 547.1 701 547.9 C 701 548.6 700.4 550.4 699.6 551.8 C 698.8 553.3 697.2 557 696 560 C 694.7 563 691.8 569.5 689.4 574.4 C 687 579.2 685 583.6 685 584.1 C 685 584.6 683.5 588.2 681.6 592.2 C 679.8 596.2 677.9 600.6 677.6 602 C 677.2 603.4 676.2 605.9 675.5 607.5 C 674.7 609.1 673.1 613.2 671.9 616.5 C 670.7 619.8 669.1 624.1 668.3 626 C 667.4 627.9 664.8 634.9 662.4 641.5 C 660.1 648.1 657.2 656 656 659 C 654.8 662 653.5 666.1 653 668 C 652.6 669.9 651.4 673.3 650.5 675.5 C 648.7 679.4 648.2 681.3 646.1 692.7 C 645.6 695.5 644.7 698.7 644.2 699.7 C 643.6 700.7 642.7 705.1 642 709.5 C 641.4 713.9 640.4 718.6 639.9 720 C 638.9 722.6 635.9 738.4 633.5 753 C 632.8 757.7 631.7 763.5 631.1 766 C 628.9 775.9 625.8 802.2 622.3 839.5 C 619.3 870.9 620.2 940 624 970.5 C 624.5 974.9 626 986.4 627.1 996 C 630 1019.5 631.7 1030.7 632.9 1035.5 C 634.2 1040.6 635.6 1047.9 637.5 1060 C 638.4 1065.2 639.5 1070.5 640 1071.8 C 640.5 1073 641.4 1077 642 1080.6 C 642.6 1084.3 643.7 1088.2 644.5 1089.4 C 645.3 1090.5 646 1093.3 646 1095.5 C 646 1097.7 646.7 1100.4 647.5 1101.4 C 648.3 1102.5 649 1104.9 649 1106.7 C 649 1108.6 649.7 1111.4 650.5 1112.9 C 651.3 1114.5 652.4 1117.5 652.9 1119.6 C 654.1 1124.6 656.6 1131.4 659 1136.6 C 660 1138.9 661.2 1142.1 661.6 1143.6 C 662.2 1146.5 668.3 1161.6 672.1 1169.6 C 673.1 1171.9 674 1174.4 674 1175.1 C 674 1175.9 674.8 1178.1 675.9 1180 C 676.9 1181.9 678.7 1186.5 680 1190.2 C 681.2 1193.9 682.9 1197.5 683.6 1198.1 C 684.4 1198.7 685 1199.8 685 1200.5 C 685 1202 696 1223.7 698.8 1227.9 C 699.8 1229.3 701.5 1232.5 702.5 1235 C 703.5 1237.5 705.1 1240.4 706.1 1241.5 C 707 1242.6 708.5 1244.8 709.4 1246.5 C 714.8 1256.3 724.2 1271.3 726.6 1274 C 728.6 1276.3 731.1 1279.8 740.5 1293.5 C 746 1301.5 751.2 1308 756 1313 C 758.5 1315.5 762.8 1320.3 765.5 1323.5 C 768.2 1326.7 773.2 1332.1 776.5 1335.5 C 779.8 1339 785.1 1344.6 788.4 1347.9 C 791.6 1351.3 797.4 1356.6 801.4 1359.7 C 805.3 1362.8 811.7 1368.1 815.5 1371.5 C 819.4 1374.8 827.2 1380.6 833 1384.4 C 838.8 1388.2 847.3 1393.8 852 1397 C 856.7 1400.1 861.5 1403 862.7 1403.4 C 863.8 1403.8 865.4 1404.7 866 1405.5 C 866.7 1406.3 868.1 1407 869 1407 C 870 1407 872.1 1408.1 873.7 1409.3 C 875.2 1410.6 878.8 1412.5 881.5 1413.6 C 884.2 1414.6 887.6 1416 889 1416.7 C 890.4 1417.4 892.1 1418 892.8 1418 C 893.5 1418 897.3 1419.4 901.3 1421 C 915.4 1427.1 935.3 1433.1 957.5 1438 C 961.9 1438.9 972 1440.3 980 1440.9 C 988 1441.6 996.1 1442.5 998 1443 C 1003.3 1444.3 1019.5 1443.3 1039 1440.6 C 1065.9 1436.8 1073.8 1435.3 1082.3 1432.5 C 1086.6 1431.1 1090.8 1430 1091.8 1430 C 1092.7 1430 1094.7 1429.4 1096.1 1428.6 C 1097.5 1427.9 1100.4 1427 1102.6 1426.6 C 1106.3 1425.9 1113.1 1423.4 1119.5 1420.5 C 1121.2 1419.7 1125.2 1418.1 1128.5 1417 C 1131.8 1415.8 1136.5 1414.1 1139 1413.3 C 1141.5 1412.4 1144.6 1410.8 1145.9 1409.8 C 1147.2 1408.8 1149.1 1408 1150.1 1408 C 1151.1 1408 1152.1 1407.6 1152.5 1407 C 1152.8 1406.5 1156.8 1404.2 1161.3 1402 C 1165.8 1399.7 1170.2 1397.2 1171.1 1396.4 C 1171.9 1395.6 1173.1 1395 1173.7 1395 C 1174.2 1395 1175.5 1394.1 1176.5 1393 C 1177.5 1391.9 1179.2 1390.8 1180.4 1390.4 C 1181.5 1390 1184.3 1388.3 1186.5 1386.5 C 1188.7 1384.8 1191.6 1382.7 1193 1382 C 1194.4 1381.3 1196.8 1379.6 1198.5 1378.3 C 1200.2 1377 1205.5 1372.9 1210.5 1369.3 C 1228.9 1355.8 1250.3 1336.2 1271 1313.8 C 1288.1 1295.3 1288 1295.4 1289.9 1292 C 1290.8 1290.4 1293.8 1286.5 1296.5 1283.2 C 1299.2 1279.9 1303.1 1275 1305 1272.3 C 1306.9 1269.7 1310.8 1264.3 1313.8 1260.5 C 1319.8 1252.7 1330 1237 1330 1235.7 C 1330 1235.2 1331.3 1233.1 1332.8 1231.1 C 1334.4 1229.1 1336.4 1226.2 1337.2 1224.5 C 1338 1222.8 1340.2 1219 1341.9 1216 C 1343.6 1213 1345.8 1208.9 1346.6 1207 C 1347.5 1205.1 1348.9 1202.7 1349.7 1201.8 C 1351.6 1199.6 1364.6 1173.9 1366.1 1169.2 C 1366.7 1167.2 1367.8 1164.8 1368.5 1164 C 1370.6 1161.4 1387 1122.4 1389.5 1114 C 1390.3 1111.5 1392.1 1106.3 1393.5 1102.5 C 1395 1098.7 1396.6 1093.7 1397.1 1091.5 C 1397.6 1089.3 1398.6 1085.9 1399.4 1084 C 1401.9 1077.5 1413.5 1037.9 1415.5 1029 C 1416.2 1026 1417.8 1019.2 1419 1014 C 1422.8 997.3 1426 976.1 1430.1 939.5 C 1430.6 934.5 1431.8 924.6 1432.8 917.5 C 1434.2 906.6 1434.5 896 1434.5 851.5 C 1434.4 815.1 1434 795.4 1433.2 788.5 C 1432.5 783 1431.5 773.8 1431 768 C 1430.5 762.2 1429.6 753.9 1429 749.5 C 1428.4 745.1 1427.3 736 1426.5 729.3 C 1425.8 722.6 1424.7 716.3 1424.2 715.3 C 1423.7 714.3 1423 710.1 1422.6 706 C 1421.9 699.1 1419.1 684.9 1416.9 677.5 C 1416.5 675.9 1414.6 668.6 1412.9 661.5 C 1411.2 654.4 1409.4 648.1 1408.9 647.5 C 1408.4 647 1408 645.4 1408 643.8 C 1408 642.3 1407.4 639.6 1406.6 637.8 C 1405.8 636 1404.5 632.5 1403.7 630 C 1398.4 613 1392.2 595 1388.8 586.5 C 1386.6 581 1384.1 574.5 1383.2 572 C 1382.4 569.5 1381.2 566.8 1380.6 566 C 1379.9 565.2 1378.8 562.7 1378.1 560.5 C 1377.4 558.3 1374.3 551.3 1371.3 545 C 1365.3 532.5 1365.6 533 1360.3 523.2 C 1351.5 506.7 1348.4 501.1 1345.2 496 C 1343.2 493 1340 488 1338.1 484.9 C 1336.1 481.9 1333.4 477.4 1332 475.1 C 1330.6 472.8 1327.4 467.9 1324.8 464.2 C 1322.2 460.5 1319.1 456 1317.8 454.2 C 1314.6 449.6 1307.7 441.4 1293.1 424.8 C 1276.5 406 1265.7 395 1263.8 395 C 1262.9 395 1262 396.2 1261.6 398.1 M 364 542.3 C 361.3 543.7 358.3 549.1 356.7 555.5 C 356.2 557.7 355.5 565.9 355.3 573.7 C 354.9 587.7 354.9 588 358.4 599.2 C 360.9 607.1 363.9 614 368.6 622 C 376 634.7 380.2 640.1 393.2 653.6 C 398 658.6 402 663.1 402 663.6 C 402 664.1 403.2 665.1 404.8 665.8 C 407.8 667.1 412.9 670.5 417.6 674.4 C 421.3 677.5 423.1 677.6 425.3 675.2 C 426.6 673.8 426.8 671 426.5 657 C 426.3 647.9 425.6 637.4 425 633.5 C 424.4 629.6 423.5 624 423.1 621 C 420.9 606.4 410.9 578.7 406.7 575.1 C 405.9 574.5 404.6 572.5 403.9 570.7 C 402 566 390.2 552.2 386.6 550.4 C 384.9 549.6 380.6 547.2 377 545 C 370.1 540.7 368 540.3 364 542.3 M 1653.2 547.3 C 1638.4 554.9 1630.1 563.9 1619.1 584.2 C 1616.9 588.4 1615 593 1615 594.2 C 1615 595.5 1614.2 598.1 1613.2 600 C 1612.2 601.9 1610.8 606.4 1610.1 610 C 1609.4 613.6 1608.5 618.1 1608 620 C 1607.5 621.9 1606.2 629.8 1605 637.5 C 1603.5 647.7 1603 655.2 1603.2 665 L 1603.5 678.5 1607.5 678.8 C 1611.2 679 1612.2 678.4 1621.6 670.6 C 1632.9 661.1 1643.7 649.9 1650.4 640.7 C 1652.9 637.3 1655.8 633.3 1657 631.8 C 1660.3 627.4 1666 617 1669.7 608.5 C 1674.3 597.8 1675.8 583.4 1674.2 566.2 C 1673.2 554.8 1672.9 553.9 1669.3 548.6 C 1666.8 544.9 1664.9 543 1663.5 543 C 1662.4 543 1657.8 544.9 1653.2 547.3 M 322.3 692.6 C 320.6 693.3 318.9 694.4 318.6 694.9 C 316.8 697.7 316.2 706.7 317 718.5 C 317.7 728.7 318.6 733.5 321 740.9 C 322.7 746 325.4 752.2 327 754.6 C 328.7 756.9 330 759.2 330 759.5 C 330 760.3 334.4 766 341.8 774.8 C 347.6 781.8 367.2 798.9 372.9 802.1 C 374.9 803.2 378.3 805.2 380.5 806.6 C 382.7 807.9 386 809.7 387.9 810.6 C 389.8 811.5 392.8 813.2 394.4 814.4 C 401.9 820 403.5 818.3 402.7 806.1 C 402.3 801.2 401.5 795.9 400.9 794.4 C 400.3 792.8 399.4 788.4 398.9 784.5 C 398 777.7 396.2 771.4 391.3 758 C 387.6 748 385.7 743.6 384.4 742 C 383.7 741.2 382.5 738.8 381.6 736.6 C 380.7 734.5 378.3 730.7 376.2 728.1 C 374.1 725.6 371.6 722.2 370.6 720.6 C 367.9 716.4 358.1 705.9 354 703 C 347.1 698 339.4 694.2 333.5 693 C 330.2 692.3 327.1 691.6 326.5 691.5 C 326 691.3 324.1 691.8 322.3 692.6 M 1702.9 697.5 C 1701.4 698.3 1700 699.6 1699.7 700.5 C 1698.9 702.4 1696.6 702.4 1695.1 700.6 C 1692.7 697.7 1688.7 697.8 1683.4 700.7 C 1678.4 703.5 1663.9 717.1 1659.5 723.2 C 1645.6 742.4 1639 756.8 1633 781 C 1631.9 785.1 1630.3 791.2 1629.4 794.5 C 1627.3 802.3 1625.5 815.3 1626.3 817.4 C 1627.3 820 1631.2 819.3 1639 815 C 1643 812.8 1646.6 811 1647 811 C 1647.4 811 1649 810 1650.5 808.8 C 1652.1 807.6 1654.6 805.9 1656.1 805 C 1669 797.7 1686.6 781 1697.9 765.3 C 1702 759.6 1707 750.6 1707 748.9 C 1707 748.1 1707.7 746.1 1708.6 744.5 C 1709.5 742.9 1710.6 738.8 1711 735.5 C 1711.5 732.2 1712.6 726.4 1713.4 722.5 C 1715.9 711.2 1713.9 699.6 1709.1 697 C 1706.6 695.7 1706.1 695.8 1702.9 697.5 M 311.8 840.1 C 308.8 841.8 307 846.6 307 852.9 C 307 856.2 307.6 860.7 308.4 862.7 C 309.2 864.8 310.1 868.8 310.4 871.5 C 311.3 878.2 315 888.5 318.6 893.9 C 320.2 896.3 322.4 899.7 323.5 901.4 C 326.6 906.4 329.7 909.8 340 919.4 C 348.5 927.3 357.1 933.7 365.5 938.4 C 367.1 939.3 369.2 940.4 370 941 C 374.1 943.5 387.1 949.4 391.5 950.7 C 394.2 951.5 397.4 952.8 398.5 953.6 C 399.6 954.4 401 955 401.7 955 C 403.5 955 406 949.7 405.4 946.9 C 404.4 942.3 400.8 930.5 399.4 927.3 C 398.6 925.6 398 923.5 398 922.6 C 398 919.3 382.9 888.3 378.4 882.5 C 376.6 880.1 374.5 876.9 373.7 875.3 C 372.9 873.8 367.5 867.8 361.8 862 C 350.4 850.6 341 844.2 330.6 840.9 C 324 838.9 314.6 838.4 311.8 840.1 M 1705.5 842 C 1699.8 842.9 1686.2 848.8 1684.1 851.3 C 1683.4 852.3 1682.2 853 1681.6 853 C 1679.8 853 1671.1 860.7 1664.6 867.9 C 1657.4 876 1653.3 882.1 1643.8 898.5 C 1642.2 901.3 1639.3 907.4 1636.8 913 C 1634.2 918.9 1629.5 932.8 1625.4 946.2 C 1624.6 949.1 1623.6 952.2 1623.3 953.2 C 1623 954.2 1623.7 955.4 1625.3 956.5 C 1627.7 958 1628.1 958 1631.9 956.1 C 1634.1 954.9 1636.6 954 1637.5 954 C 1638.4 954 1640.8 953.1 1642.8 952 C 1644.8 950.9 1649.5 948.7 1653.2 947 C 1656.9 945.4 1660.1 943.6 1660.5 943 C 1660.8 942.5 1661.7 942 1662.4 942 C 1664.4 942 1676.5 933.6 1685.7 925.9 C 1695 918.1 1707.1 905.1 1709.9 900 C 1716.6 887.4 1718 884.3 1718 881.5 C 1718 879.8 1718.8 877.3 1719.8 876 C 1721 874.3 1721.8 869.9 1722.6 861.5 L 1723.8 849.5 1721.1 845.5 C 1718.8 842 1717.9 841.5 1714.5 841.4 C 1712.3 841.3 1708.2 841.6 1705.5 842 M 324.5 1007.9 C 323.4 1008.4 320.7 1008.9 318.4 1008.9 C 312.1 1009 310 1011.9 310 1020.5 C 310 1025.5 310.6 1028.5 312.2 1031.9 C 315.1 1037.9 327.5 1054.6 330.7 1056.8 C 332.1 1057.7 335.8 1060.8 338.9 1063.7 C 346.9 1071.1 366.3 1080.6 377 1082.2 C 380.6 1082.8 384 1083.6 384.7 1084.2 C 386.1 1085.4 403.8 1087.6 418.6 1088.5 C 429.7 1089.2 433.2 1088.6 435.2 1085.6 C 436.6 1083.5 436 1080.3 433.9 1078.4 C 432.8 1077.4 429.8 1073.6 427.3 1070 C 421.8 1062.1 416.9 1056.5 406.5 1046.1 C 390.6 1030.3 381.2 1023.5 363.7 1015 C 355.4 1011 351.1 1009.5 345.7 1008.9 C 332.2 1007.3 326.5 1007 324.5 1007.9 M 1691.8 1010.6 C 1691.4 1011 1688.7 1011.4 1685.8 1011.6 C 1680.7 1011.9 1669.7 1015.2 1667.4 1017.1 C 1666.7 1017.6 1663.6 1019.4 1660.4 1021 C 1651.9 1025.3 1648 1027.6 1645.6 1029.8 C 1644.5 1030.9 1642.1 1032.5 1640.3 1033.4 C 1635.9 1035.6 1614.7 1057 1607.5 1066.6 C 1604.2 1070.9 1599.8 1076.6 1597.7 1079.1 C 1594.6 1082.9 1593.9 1084.5 1594.2 1087.1 L 1594.5 1090.5 1611 1090.3 C 1620.1 1090.2 1630.2 1089.6 1633.5 1089.1 C 1665.6 1083.8 1682.2 1075.8 1703 1055.8 C 1706.1 1052.8 1714.5 1041.3 1717.1 1036.6 C 1721.2 1029 1722 1026.6 1722 1022.2 C 1722 1018.1 1721.5 1016.9 1719 1014.5 C 1716.6 1012.2 1714.8 1011.5 1711.2 1011.3 C 1708.6 1011.1 1703.3 1010.7 1699.5 1010.4 C 1695.6 1010.1 1692.2 1010.2 1691.8 1010.6 M 369.5 1151.6 C 361.1 1153 359.3 1153.9 357.5 1158 C 356.3 1160.6 355.9 1163.1 356.3 1165.6 C 357.1 1170.5 363.5 1183 367.6 1187.9 C 369.5 1190 371 1192.2 371 1192.7 C 371 1194.4 384.8 1207.8 390.3 1211.4 C 393.3 1213.4 396.1 1215 396.6 1215 C 397.1 1215 400 1216.6 403 1218.5 C 406 1220.4 409.6 1222 411 1222 C 412.4 1222 414.5 1222.7 415.7 1223.5 C 417.9 1225.1 427 1227.3 440.2 1229.5 C 444.4 1230.2 448.5 1231.2 449.2 1231.6 C 449.8 1232 456.5 1232.5 464 1232.6 C 477.4 1232.9 485 1231.8 485 1229.5 C 485 1227.9 480.1 1220.4 475.4 1214.8 C 473.3 1212.2 470.2 1208.4 468.7 1206.3 C 465.6 1202.1 455.6 1190.7 452.5 1187.8 C 446.8 1182.5 433.1 1171.1 430 1169.2 C 428.1 1168 424.5 1166.1 422 1164.9 C 419.5 1163.8 416.6 1162.1 415.5 1161.1 C 414.4 1160.1 408.3 1157.6 402 1155.5 C 392.8 1152.5 388.7 1151.7 381.5 1151.5 C 376.6 1151.3 371.1 1151.4 369.5 1151.6 M 1640 1155.5 C 1629.1 1157.8 1623.8 1159.6 1615 1163.9 C 1604.1 1169.3 1602.4 1170.3 1599.6 1172.9 C 1598.4 1174 1596.9 1175 1596.3 1175 C 1595.8 1175 1594.5 1175.9 1593.5 1177 C 1592.5 1178.1 1591.2 1179 1590.7 1179 C 1589 1179 1569.2 1199 1562.7 1207.4 C 1559.3 1211.8 1555.1 1216.9 1553.4 1218.9 C 1551.7 1220.9 1549.5 1223.8 1548.6 1225.5 C 1547.7 1227.2 1546.4 1229.3 1545.7 1230.3 C 1544.7 1231.8 1544.8 1232.4 1546.4 1233.6 C 1547.9 1234.6 1551.6 1235 1561.4 1235 C 1575.1 1235 1586.6 1233.4 1606.5 1229 C 1612.8 1227.7 1624.2 1223.2 1627.2 1221 C 1628.7 1219.9 1630.5 1219 1631.2 1219 C 1632.9 1219 1643.6 1211.6 1648.6 1206.9 C 1653.4 1202.6 1658.9 1195.8 1664.5 1187.7 C 1674.7 1172.5 1676.5 1164.8 1671.2 1158.8 C 1668.9 1156.3 1667.4 1155.6 1663.9 1155.4 C 1661.5 1155.2 1656.6 1154.9 1653 1154.6 C 1649.3 1154.3 1643.7 1154.7 1640 1155.5 M 440 1289.6 C 438.6 1289.9 434.1 1291.2 430 1292.6 C 423 1294.8 422.3 1295.3 420 1299.5 C 417.6 1303.8 417.6 1304.1 419.3 1306.9 C 420.2 1308.5 421 1310.4 421 1311.1 C 421 1314.9 441.6 1338 445.1 1338 C 445.8 1338 447.3 1338.9 448.4 1339.9 C 451.7 1342.9 466 1349.6 472 1351 C 475 1351.7 479.1 1352.8 481 1353.6 C 490.2 1357 520.2 1357.7 540.5 1354.9 C 548.6 1353.8 557 1351.3 557 1349.9 C 557 1347.8 537.7 1328.5 528.8 1321.8 C 518.2 1313.8 503.9 1304.4 500.7 1303.4 C 499.5 1303.1 497.8 1302.2 497 1301.5 C 495.5 1300.3 482.3 1295 472.5 1291.7 C 467.5 1290 445.3 1288.6 440 1289.6 M 1563.1 1293.2 C 1559.5 1293.7 1553.6 1295.4 1549.9 1297 C 1546.2 1298.7 1542.5 1300 1541.7 1300 C 1540.9 1300 1539.2 1300.8 1537.9 1301.9 C 1536.6 1302.9 1533.9 1304.2 1532 1304.9 C 1529 1305.9 1512.6 1315.8 1506.5 1320.4 C 1495.5 1328.6 1473 1350.1 1473 1352.5 C 1473 1354.8 1475.4 1355.8 1483 1356.9 C 1494.1 1358.6 1530.2 1359.3 1539 1358.1 C 1550.4 1356.6 1555.8 1355.4 1557.2 1354.3 C 1557.9 1353.7 1560 1353 1561.8 1352.7 C 1565.9 1351.9 1574.6 1347.6 1582.1 1342.8 C 1589.1 1338.2 1601.8 1325.6 1607.6 1317.2 C 1611.3 1311.9 1612 1310.2 1612 1306.2 C 1612 1302 1611.7 1301.3 1608.7 1299.5 C 1597.7 1292.8 1581.5 1290.5 1563.1 1293.2 M 534.6 1418.1 C 527.9 1418.8 524.2 1419.7 519.7 1422 C 516.4 1423.6 513.1 1425 512.3 1425 C 511.5 1425 509.8 1426.1 508.5 1427.5 C 505.1 1430.8 505.1 1436.7 508.5 1441.8 C 513.7 1449.4 515.7 1451.7 521.3 1456.9 C 530.2 1464.9 545.7 1474 550.5 1474 C 551.4 1474 554.2 1474.9 556.7 1476.1 C 560.8 1478 563.1 1478.1 585 1478.2 C 598.8 1478.2 610.8 1477.8 613.6 1477.2 C 616.3 1476.5 623.9 1474.8 630.5 1473.4 C 637.1 1471.9 643.3 1470.3 644.2 1469.8 C 645.3 1469.3 646 1467.8 646 1466.1 C 646 1463.1 644.2 1461.2 635 1454.5 C 632.8 1452.8 629.6 1450.5 628.1 1449.2 C 626.5 1448 624.9 1447 624.5 1447 C 624 1447 621.8 1445.4 619.5 1443.5 C 615.9 1440.6 594 1428.3 589 1426.4 C 588.2 1426.1 585.9 1425.2 584 1424.5 C 574.7 1421 566.7 1419.1 558.5 1418.6 C 553.5 1418.2 548.1 1417.8 546.5 1417.6 C 544.9 1417.4 539.5 1417.7 534.6 1418.1 M 1473.5 1420.6 C 1466.9 1421.4 1460.1 1422.7 1458.4 1423.4 C 1456.6 1424.2 1453.5 1425.2 1451.4 1425.6 C 1446.7 1426.4 1429.8 1434.3 1425.3 1437.6 C 1423.6 1438.9 1421.8 1440 1421.5 1440 C 1420.9 1440 1409.7 1446.6 1404.6 1450 C 1394.8 1456.5 1384 1466.3 1384 1468.7 C 1384 1471.8 1385.2 1472.5 1394 1474.8 C 1411.1 1479.4 1438.4 1482.6 1451.5 1481.5 C 1471 1480 1487.1 1475.5 1496.5 1469 C 1503.7 1464.1 1516.2 1453.1 1518.5 1449.7 C 1519.6 1448 1521.3 1445.5 1522.2 1444.1 C 1523.2 1442.6 1524 1439.6 1524 1437.2 C 1524 1434 1523.4 1432.3 1521.5 1430.4 C 1517.2 1426.1 1505 1421.5 1495 1420.5 C 1491.4 1420.2 1487.8 1419.7 1487 1419.6 C 1486.2 1419.4 1480.1 1419.9 1473.5 1420.6 M 655.8 1535.5 C 645.4 1537.5 635.5 1541.4 630.1 1545.5 C 627.7 1547.4 625.1 1549 624.4 1549 C 622.2 1549 621 1552.5 621 1558.4 C 621 1563.9 621.1 1564.2 626.2 1569 C 629.1 1571.7 632 1574 632.6 1574 C 633.2 1574 635.8 1575.6 638.3 1577.5 C 640.8 1579.4 643.3 1581 643.9 1581 C 644.5 1581 648.2 1582.5 652.2 1584.3 C 666.8 1591 685.6 1593.6 699 1591 C 701.5 1590.5 707.1 1589.4 711.5 1588.6 C 722.3 1586.5 730.2 1584.5 732.8 1583.1 C 733.9 1582.5 735.8 1582 737 1582 C 738.2 1582 741.7 1580.8 744.8 1579.3 C 747.9 1577.8 753.2 1575.7 756.5 1574.6 C 762.1 1572.6 762.5 1572.3 762.8 1569.2 C 763 1567.4 762.6 1565.2 761.9 1564.4 C 761.2 1563.6 757.2 1561.3 753.1 1559.4 C 748.9 1557.5 743.7 1555.1 741.5 1554 C 729.4 1548.4 724 1546 719.8 1544.6 C 717.2 1543.7 714.2 1542.6 713.3 1542.1 C 712.3 1541.5 706.5 1539.7 700.5 1538.1 C 686.6 1534.3 668 1533.2 655.8 1535.5 M 1346 1537.6 C 1335.2 1539 1304.3 1548 1300.5 1550.9 C 1300 1551.4 1297.2 1552.6 1294.5 1553.6 C 1289.2 1555.5 1269.4 1565.5 1267.2 1567.2 C 1266.6 1567.8 1266 1569.5 1266 1571 C 1266 1573.3 1266.8 1574 1271.2 1576 C 1278.8 1579.3 1282 1580.6 1286 1581.9 C 1287.9 1582.6 1293.1 1584.4 1297.5 1585.9 C 1313.7 1591.5 1331.1 1594.9 1343.4 1595 C 1351.2 1595 1366.5 1592.5 1369.5 1590.6 C 1370.6 1589.9 1373.5 1588.8 1376 1588.1 C 1383 1586 1399 1576.2 1404.8 1570.3 C 1409.4 1565.5 1410 1564.4 1410 1560.7 C 1410 1555.8 1409.7 1555.4 1404.5 1551.4 C 1398.3 1546.7 1391.5 1543.2 1382.6 1540.4 C 1376 1538.3 1372.1 1537.7 1362 1537.5 C 1355.1 1537.3 1347.9 1537.4 1346 1537.6 M 467.5 1748.2 C 463.6 1748.6 459.1 1749.6 457.5 1750.4 C 455.8 1751.3 453.1 1752 451.4 1752 C 449.7 1752 447.7 1752.7 447 1753.5 C 446.4 1754.3 444.8 1755.2 443.7 1755.5 C 442.5 1755.9 439 1757.4 436.1 1758.8 C 429.4 1762.1 416.1 1775.2 413.8 1780.6 C 408 1794.9 408 1795 408 1809.7 C 408 1827 409.3 1832.7 415.4 1841.8 C 421.4 1850.7 434.6 1862.5 439.9 1863.6 C 441.3 1863.9 444.8 1865.2 447.5 1866.6 C 450.3 1867.9 452.9 1869 453.4 1869 C 454.3 1869 456 1869.8 471.2 1876.9 C 476 1879.2 480.5 1881 481.2 1881 C 481.9 1881 484 1881.9 485.8 1883 C 487.6 1884.1 489.6 1885 490.2 1885 C 490.8 1885 493.2 1885.8 495.4 1886.9 C 497.7 1887.9 501.7 1889.6 504.4 1890.6 C 507.3 1891.8 511.5 1894.7 514.9 1898 C 524.4 1907.3 525.8 1909.6 528 1920.5 C 529.8 1929.8 529.8 1930.8 528.4 1937.9 C 526 1949.6 522.5 1956.1 513.8 1964.7 C 509.9 1968.6 497.5 1975 493.9 1975 C 492.4 1975 489.6 1975.7 487.7 1976.5 C 482.8 1978.5 462.1 1978.6 455.4 1976.5 C 452.7 1975.7 449.7 1975 448.7 1975 C 447.6 1975 445.7 1974.1 444.3 1973 C 442.9 1971.9 441.1 1971 440.2 1971 C 439.4 1971 435.9 1968.5 432.4 1965.4 C 427.8 1961.4 425.2 1958.1 423 1953.5 C 421.4 1950.1 420 1945.6 420 1943.6 C 420 1939.3 418.3 1938.3 414.5 1940.3 L 411.8 1941.7 411.6 1955.1 C 411.4 1968 412.4 1979.7 413.8 1981.2 C 414.5 1981.9 435.9 1987.7 451 1991.2 C 461.1 1993.6 483.5 1994.6 493 1993.2 C 505 1991.4 518.3 1987.3 525 1983.3 C 532.5 1978.9 542.7 1969.2 547.6 1961.9 C 553.2 1953.5 556.6 1944.4 557.9 1934 C 559.2 1924.4 559.1 1923.7 556.1 1909 C 555.1 1904.5 549.9 1893.6 546.3 1888.6 C 542.1 1882.8 534.9 1876 531.3 1874.4 C 529.6 1873.7 527.9 1872.6 527.6 1872.1 C 527.3 1871.7 524.3 1870.3 521.1 1869 C 517.8 1867.8 514.5 1866.2 513.9 1865.4 C 513.3 1864.6 512.1 1864 511.3 1864 C 510.5 1864 508.7 1863.1 507.3 1862 C 505.9 1860.9 504.1 1860 503.3 1860 C 502.5 1860 500.7 1859.1 499.3 1858 C 497.9 1856.9 495.7 1856 494.5 1856 C 493.3 1856 491.2 1855.2 489.9 1854.1 C 488.6 1853.1 485.9 1851.9 484 1851.5 C 482.1 1851.1 478.7 1850 476.5 1849 C 474.3 1848.1 469.9 1846.3 466.8 1845 C 456.1 1840.9 445 1832.7 440.2 1825.6 C 436.1 1819.5 433.7 1811.3 434.3 1805.4 C 435 1798.5 437.4 1789 439.3 1785.3 C 441.5 1781.1 455.9 1768 458.4 1768 C 459.4 1768 461.1 1767.3 462.1 1766.4 C 463.5 1765.1 467 1764.8 481.7 1764.6 C 498.4 1764.4 500 1764.5 508.3 1767 C 521.9 1771.1 526.9 1776.1 531.1 1790 C 532.1 1793.3 533.1 1794.6 534.6 1794.8 C 535.8 1795 537 1794.4 537.3 1793.6 C 538.3 1791.1 538.3 1757.9 537.4 1757 C 536.9 1756.6 534.7 1756 532.5 1755.7 C 530.3 1755.4 526.7 1754.5 524.5 1753.7 C 522.3 1752.8 518.2 1752.1 515.4 1752 C 512.6 1752 508.3 1751.1 505.9 1750.1 C 502.5 1748.6 498.4 1748.1 488 1747.8 C 480.6 1747.6 471.3 1747.8 467.5 1748.2 M 1505.2 1748.1 C 1499 1748.5 1492.1 1749.5 1489.9 1750.4 C 1487.8 1751.3 1484.6 1752 1483 1752 C 1481.3 1752 1478.3 1752.9 1476.3 1754 C 1474.2 1755.1 1471.8 1756 1471 1756.1 C 1470.2 1756.1 1467.2 1757.4 1464.5 1759 C 1461.8 1760.7 1456.5 1763.5 1452.8 1765.5 C 1449.2 1767.4 1445.9 1769.4 1445.5 1770 C 1445.1 1770.6 1443.2 1772.1 1441.2 1773.4 C 1437.4 1775.9 1426.2 1786.7 1422.3 1791.6 C 1421 1793.2 1418.6 1796.3 1416.9 1798.5 C 1415.2 1800.7 1413.5 1802.7 1413 1803 C 1411.4 1804 1399.3 1829.6 1398.6 1833.5 C 1398.2 1835.6 1397.2 1838.7 1396.4 1840.2 C 1395 1842.9 1392.6 1863.9 1392.6 1874 C 1392.6 1884.9 1394.3 1899.6 1396.1 1904.3 C 1397.2 1906.9 1398 1910.5 1398 1912.2 C 1398 1913.8 1398.8 1916.9 1399.9 1918.9 C 1400.9 1920.9 1403.9 1927 1406.6 1932.5 C 1410.3 1940 1413.6 1944.8 1419.9 1951.9 C 1424.5 1957.1 1431.7 1964.3 1436 1967.9 C 1443.7 1974.4 1451.9 1980 1453.7 1980 C 1454.2 1980 1456.1 1981.1 1458 1982.5 C 1461.3 1984.9 1471.3 1988.6 1482.3 1991.5 C 1495.2 1994.8 1534.1 1995.5 1542 1992.5 C 1543.9 1991.8 1548.4 1990.4 1552 1989.4 C 1555.6 1988.4 1561 1986.4 1564 1984.9 C 1567 1983.4 1571.1 1981.7 1573.1 1981.1 C 1575.1 1980.4 1577.6 1979 1578.5 1978 C 1579.5 1976.9 1580.8 1976 1581.5 1976 C 1582.1 1976 1584.2 1974.5 1586.2 1972.8 C 1590.5 1968.8 1595.6 1965 1596.7 1965 C 1598.1 1964.9 1603.5 1959.7 1606.6 1955.5 C 1608.2 1953.3 1610.9 1949.9 1612.7 1948 C 1618.1 1942 1620 1939.2 1623.1 1932.8 C 1624.8 1929.3 1627.3 1924.5 1628.6 1922 C 1629.9 1919.5 1631.7 1915 1632.6 1912 C 1633.5 1909 1634.6 1906 1635.1 1905.3 C 1635.7 1904.7 1637 1898.4 1638.1 1891.3 C 1641.4 1871.1 1640 1852.8 1633.9 1833.7 C 1632.8 1830.6 1632 1827.5 1632 1826.9 C 1632 1826 1628.4 1817.9 1622.7 1806 C 1621.5 1803.5 1618.5 1799 1616 1796 C 1613.5 1793 1610.6 1789.3 1609.7 1787.8 C 1607.4 1784.2 1587.9 1767.4 1584.8 1766.5 C 1583.6 1766.1 1580.6 1764.5 1578.2 1762.9 C 1575.8 1761.3 1573.3 1760 1572.6 1760 C 1571.9 1760 1570.1 1759.1 1568.7 1758 C 1567.3 1756.9 1565 1756 1563.5 1756 C 1561.9 1756 1558.9 1755.1 1556.6 1754.1 C 1551.2 1751.6 1540.4 1749.3 1530.5 1748.5 C 1526.1 1748.2 1521.2 1747.8 1519.5 1747.6 C 1517.8 1747.4 1511.4 1747.6 1505.2 1748.1 M 954.6 1750.6 C 950.2 1751.9 945.9 1753.7 945 1754.5 C 944.1 1755.3 942.4 1756 941.3 1756 C 940.2 1756 938.5 1756.9 937.5 1758 C 936.5 1759.1 935.3 1760 934.9 1760 C 934 1760 925.1 1766.1 920.9 1769.5 C 917.1 1772.7 911.6 1781.8 908.6 1790.1 C 906 1797.3 905.9 1798.5 906.3 1812.1 C 906.7 1827.9 908.5 1835.2 913.6 1841.3 C 920.2 1849.3 929.5 1858.1 933.1 1859.7 C 935.2 1860.6 937 1861.7 937 1862.1 C 937 1862.4 938.5 1863.3 940.2 1864 C 942 1864.6 944.9 1865.7 946.5 1866.5 C 948.1 1867.2 953.1 1869.2 957.5 1871 C 961.9 1872.7 965.9 1874.6 966.5 1875.1 C 967 1875.6 968.1 1876 969.1 1876 C 970 1876 972.4 1877.1 974.4 1878.5 C 976.4 1879.9 979.3 1881.3 980.8 1881.6 C 982.3 1882 984.4 1882.9 985.5 1883.6 C 986.6 1884.4 988.1 1885 988.9 1885 C 990.5 1885 998.8 1888.7 1007.3 1893.1 C 1012.8 1896 1022.5 1906.3 1025.4 1912.4 C 1028.2 1918.2 1028.9 1927.3 1027.6 1938 C 1026.8 1944.2 1023.6 1951.6 1018.8 1958 C 1016.4 1961.3 1004.8 1971 1003.3 1971 C 1002.7 1971 1001.2 1971.8 999.9 1972.9 C 998.6 1973.9 995.7 1975 993.5 1975.3 C 991.3 1975.6 987.5 1976.3 985 1977 C 982.1 1977.7 976 1978 968 1977.7 C 951.4 1977.1 942 1974.2 932.9 1966.9 C 925 1960.6 919 1951.2 919 1945.1 C 919 1940.2 913.1 1937 911.2 1940.8 C 910.6 1941.7 910.2 1950.5 910.3 1960.2 L 910.3 1977.9 913 1980.5 C 914.8 1982.3 918.2 1983.6 924.6 1985.1 C 929.5 1986.2 935.1 1987.5 937 1988 C 938.9 1988.5 944.3 1989.7 949 1990.6 C 953.7 1991.4 959.1 1992.6 961 1993.2 C 965.6 1994.4 993.3 1993.7 999 1992.1 C 1001.5 1991.4 1005.5 1990.4 1007.9 1989.9 C 1012.7 1988.8 1021.7 1984.8 1026.6 1981.5 C 1032.6 1977.4 1043.2 1967.5 1046.1 1963.1 C 1054.3 1951.1 1057.3 1941.1 1057.3 1926 C 1057.4 1915 1056 1908.5 1051.5 1898.5 C 1048.6 1892.2 1035.3 1876.8 1030.5 1874.4 C 1028.6 1873.3 1022.4 1870.1 1016.7 1867.2 C 1011.1 1864.3 1005.8 1861.6 1005 1861.1 C 1001.9 1859.4 994.3 1856.1 987.5 1853.5 C 979.8 1850.5 972.3 1847.5 967.2 1845.4 C 965.4 1844.6 963.3 1844 962.5 1844 C 961.7 1844 959.9 1842.9 958.4 1841.5 C 956.9 1840.1 955.3 1839 954.9 1839 C 953.7 1839 947.1 1834.4 943.4 1831 C 941.6 1829.4 938.6 1824.7 936.6 1820.5 C 932 1810.9 931.7 1803.6 935.5 1793.6 C 939.9 1781.9 947.9 1772.7 958 1767.7 L 964.5 1764.5 982.8 1764.7 C 999.3 1765 1002 1765.2 1009.6 1767.6 C 1016.8 1769.8 1018.7 1770.8 1022.7 1774.9 C 1026.5 1778.8 1028 1781.3 1030 1787.6 C 1031.6 1792.8 1033 1795.5 1034 1795.5 C 1035.3 1795.5 1035.6 1792.5 1036.2 1777.5 C 1036.5 1767.6 1036.6 1758.8 1036.4 1758 C 1036 1756.3 1019.9 1752 1014 1752 C 1012 1752 1007.9 1751.1 1004.7 1750 C 999.8 1748.3 996.7 1748 980.8 1748.1 C 964.6 1748.2 961.6 1748.5 954.6 1750.6 M 794.6 1753.4 C 793.2 1755.9 792 1758.9 792 1760.2 C 792 1761.5 791.3 1763.5 790.5 1764.7 C 789.7 1765.9 787.6 1770.4 786 1774.7 C 784.3 1779 782.3 1783.8 781.5 1785.5 C 780.8 1787.2 778.9 1792 777.5 1796.4 C 776 1800.7 774.4 1805 773.9 1805.9 C 773.4 1806.8 771.9 1810.9 770.5 1815 C 767.5 1824.2 765.3 1830.5 764.1 1832.8 C 762.8 1835.5 760 1844.6 760 1846.2 C 760 1847.1 759.2 1848.8 758.1 1850.1 C 757.1 1851.4 755.9 1854.1 755.5 1856 C 755.1 1857.9 753.9 1861.1 752.9 1863 C 751.8 1864.9 751 1867.1 751 1867.8 C 751 1868.6 750.3 1870.4 749.5 1871.8 C 748.7 1873.3 746.7 1878.1 745.1 1882.5 C 739 1899.4 733 1915.2 731.5 1918 C 730.7 1919.6 730 1921.9 730 1923.2 C 730 1924.5 729.4 1926.4 728.6 1927.5 C 727.9 1928.6 727 1930.8 726.8 1932.5 C 726.1 1936.2 724.6 1940.5 721 1949 C 719.5 1952.6 716.6 1959.4 714.6 1964.2 C 710 1975.3 704 1983.6 699.9 1984.4 C 697.3 1984.9 696.9 1985.4 697.2 1987.7 L 697.5 1990.5 717.5 1990.5 C 737.4 1990.5 737.5 1990.5 737.8 1988.3 C 738 1986.6 737.1 1985.4 734.1 1983.3 C 729.2 1979.9 728.2 1977.1 730.4 1972.2 C 731.2 1970.2 733.7 1963.3 735.9 1957 C 738.1 1950.7 740.8 1943 742 1940 C 743.2 1937 744.6 1932.8 745.1 1930.8 C 745.6 1928.8 746.6 1925.6 747.4 1923.8 C 748.2 1922 749.9 1917.1 751.1 1913 C 752.3 1908.9 754.1 1903.8 755.2 1901.8 C 756.2 1899.7 757 1897.4 757 1896.6 C 757 1895.8 758.2 1893.3 759.7 1891.1 L 762.4 1887 781.4 1886.9 C 791.9 1886.8 803.2 1886.8 806.5 1886.9 C 809.8 1887 814.3 1887 816.6 1887 C 821.1 1886.9 822.4 1888 823.4 1892.5 C 823.8 1894.2 824.7 1896.2 825.5 1897 C 826.2 1897.8 827 1899.8 827.3 1901.5 C 827.9 1905.1 830.7 1913.4 832.6 1917.3 C 833.4 1918.9 834 1920.6 834 1921.1 C 834 1921.6 835.8 1926.8 838.1 1932.7 C 840.3 1938.7 843.5 1947.1 845.1 1951.5 C 846.7 1955.9 848.4 1960.2 848.8 1961 C 849.3 1961.8 850.7 1965.8 852 1969.8 C 854.6 1978.2 854.2 1980 848.4 1983.8 C 845.8 1985.5 845 1986.7 845.2 1988.3 C 845.5 1990.4 846 1990.5 860.5 1991 C 868.8 1991.3 880.7 1991.3 887 1991 L 898.5 1990.5 898.8 1987.8 C 899.1 1985.5 898.7 1985 896.3 1984.4 C 891.5 1983.2 887.2 1979.1 884 1972.7 C 880.3 1965.1 869 1935.9 869 1933.9 C 869 1933.1 868.4 1931.6 867.6 1930.5 C 866.3 1928.6 863.2 1920.9 859.1 1909.5 C 858.1 1906.8 856.8 1902.9 856 1901 C 855.3 1899.1 854.1 1895.5 853.3 1893 C 852.5 1890.5 850.5 1885.1 849 1881 C 847.4 1876.9 845.3 1871 844.2 1868 C 841.6 1860.6 835.7 1845 832.5 1837 C 831 1833.4 829.3 1829.2 828.8 1827.5 C 826.6 1821.6 820.8 1806.4 819.4 1803.2 C 818.6 1801.4 818 1799 818 1797.9 C 818 1796.8 816.9 1793.7 815.5 1791 C 814.1 1788.3 813 1784.9 813 1783.5 C 813 1782.1 812.1 1779.3 811 1777.3 C 809.9 1775.2 809 1772.9 809 1772.2 C 809 1771.4 808.4 1769.6 807.6 1768.2 C 806.9 1766.7 805.2 1762.8 803.9 1759.5 C 801.4 1752.9 799.2 1749 798 1749 C 797.5 1749 796 1751 794.6 1753.4 M 222.2 1751.8 L 160 1752 160 1754.5 C 160 1756.2 160.8 1757.4 162.5 1758.2 C 163.8 1758.8 166.2 1761.1 167.7 1763.4 L 170.5 1767.5 170.8 1869.8 L 171.1 1972.2 168.8 1976.7 C 167.5 1979.2 165 1982.4 163.3 1983.8 C 159.9 1986.3 159.1 1989.1 161.2 1990.6 C 161.9 1991.1 173.3 1991.3 186.5 1991 L 210.5 1990.5 210.8 1987.8 C 211.1 1985.5 210.6 1984.8 207.7 1983.7 C 205.2 1982.6 203.6 1980.9 201.9 1977.4 L 199.5 1972.5 199.2 1923.5 C 199 1884.6 199.2 1874.1 200.2 1872.8 C 201.3 1871.3 204.5 1871 225 1870.4 C 259.2 1869.5 268.9 1871.4 273.5 1879.7 C 274.6 1881.7 276.3 1883.8 277.3 1884.4 C 278.7 1885.3 279.4 1885.1 280.6 1883.6 C 281.7 1882 282 1877.5 282 1861.5 C 282 1842.6 281.9 1841.2 280 1839.5 C 278.3 1838 277.8 1837.9 276.4 1839.1 C 275.5 1839.9 273.9 1842.3 273 1844.5 C 270.8 1849.5 268.5 1851.5 264 1852.5 C 262.1 1852.9 247.2 1853.5 230.9 1853.7 C 203.1 1854.1 201.2 1854 200.4 1852.3 C 200 1851.3 199.5 1832.4 199.3 1810.4 C 199.1 1778.1 199.3 1770 200.4 1769.1 C 201.3 1768.4 213.6 1768 239.3 1768 C 272.7 1767.9 277.3 1768.1 280.5 1769.6 C 284.7 1771.6 290.8 1778.4 291.6 1782 C 291.9 1783.4 292.3 1785.1 292.6 1785.8 C 293.1 1787.7 296.8 1787.2 298 1785.1 C 299.5 1782.2 299.3 1754.5 297.8 1753.3 C 295.7 1751.7 287.5 1751.5 222.2 1751.8 M 338.5 1752 C 327.1 1752.4 324.5 1752.8 324.5 1754 C 324.5 1754.8 325.5 1756 326.8 1756.6 C 331.1 1758.7 334.8 1763.2 336.6 1768.4 C 338.2 1773.1 338.3 1780.8 338.2 1871.7 C 338.1 1926.7 337.6 1970.8 337.1 1971.7 C 336.6 1972.7 335.5 1975.2 334.7 1977.2 C 333.7 1979.5 331.5 1981.9 329 1983.5 C 325.9 1985.5 325 1986.7 325.2 1988.3 C 325.5 1990.5 325.6 1990.5 350.6 1990.8 C 372 1991 375.9 1990.8 377 1989.5 C 378.7 1987.4 377.5 1985.1 374 1983.9 C 371.8 1983.1 370.3 1981.3 368 1976.8 L 365 1970.7 365 1870.7 L 365 1770.6 367.1 1766.2 C 368.5 1763.5 371.1 1760.5 374.1 1758.3 C 379.1 1754.8 380 1753.3 377.8 1752.5 C 375.5 1751.8 352.7 1751.5 338.5 1752 M 570.5 1751.8 C 565 1751.9 560.1 1752.5 559.6 1753 C 559.1 1753.5 558.7 1762 558.7 1772 C 558.7 1790.9 559 1791.9 563 1792 C 565.6 1792 567 1789.8 567 1785.9 C 567 1783.1 567.9 1781.1 570.6 1777.8 C 572.6 1775.5 576.1 1772.4 578.4 1771 C 582.4 1768.6 582.9 1768.5 603 1768.5 C 614.3 1768.5 624.3 1768.8 625.2 1769.2 C 626.9 1769.9 627 1775.6 627 1869.2 C 627 1951.9 626.7 1969.4 625.6 1973.9 C 623.9 1980 621.8 1982.7 617.2 1984.7 C 613.8 1986.1 613.1 1988 615.3 1989.9 C 616.8 1991.1 664 1991.7 665.9 1990.5 C 667.9 1989.3 667 1985.9 664.2 1984.3 C 662.7 1983.4 660.4 1981.3 659 1979.6 C 656.9 1977.1 656.4 1975.1 655.8 1967.5 C 655.4 1962.6 655.1 1916.1 655.1 1864.3 L 655.1 1770 657.2 1768.9 C 658.6 1768.2 666 1767.9 679.9 1768.2 C 699.7 1768.5 700.7 1768.6 704.9 1771 C 709.9 1773.8 715 1781.2 715.9 1786.9 C 716.4 1789.4 717.3 1790.9 719.3 1792 C 721.7 1793.3 722.2 1793.3 723 1792 C 723.9 1790.6 724.6 1770 724.1 1759.5 C 723.9 1756.8 723.2 1753.9 722.5 1753.2 C 721.5 1752.1 708.1 1751.8 650.9 1751.7 C 612.2 1751.6 576 1751.6 570.5 1751.8 M 1096.2 1751.8 C 1090.2 1752 1089 1752.4 1089 1753.8 C 1089.1 1754.7 1091 1756.7 1093.4 1758.2 C 1097 1760.5 1098.1 1762.1 1100.1 1767.2 L 1102.5 1773.5 1102.5 1871.6 C 1102.5 1947.2 1102.2 1970.2 1101.3 1972.1 C 1100.6 1973.4 1099.6 1975.7 1099 1977.2 C 1098.5 1978.7 1096.3 1981.2 1094.1 1982.7 C 1089.4 1986 1088.7 1987.2 1090.3 1989.4 C 1091.3 1990.8 1094.8 1991 1115.2 1991.1 C 1139.5 1991.3 1142 1990.9 1142 1987.3 C 1142 1986.5 1140.4 1985.2 1138.5 1984.4 C 1135.7 1983.3 1134.4 1981.8 1132.5 1977.4 L 1130 1971.8 1130 1922 L 1130 1872.2 1133.2 1871.2 C 1135.2 1870.6 1156.2 1870.2 1186.7 1870.2 C 1226.8 1870.2 1237.2 1870.4 1238.7 1871.5 C 1240.4 1872.8 1240.5 1875.7 1240.7 1919.2 C 1240.9 1974.5 1240.7 1976.3 1233.5 1982.6 C 1230.4 1985.4 1228.9 1987.4 1229.2 1988.6 C 1229.5 1990.4 1231.1 1990.5 1253 1991 C 1265.9 1991.3 1277.3 1991.1 1278.2 1990.7 C 1281.1 1989.4 1280.3 1986.1 1276.6 1983.9 C 1274.3 1982.6 1272.5 1980.3 1271.1 1977 L 1269 1972 1269.2 1870.3 C 1269.5 1792.2 1269.8 1767.7 1270.8 1764.9 C 1271.6 1762.5 1273.4 1760.3 1276 1758.6 C 1278.4 1757 1280 1755.2 1280 1754 C 1280 1752.1 1279.2 1752 1269.2 1751.8 C 1249.7 1751.5 1229.5 1752.2 1228.5 1753.2 C 1227.8 1753.9 1228.1 1754.6 1229.4 1755.4 C 1232.2 1757 1236.9 1762 1238.8 1765.5 C 1240.3 1768.2 1240.5 1773 1240.5 1809.5 C 1240.5 1832 1240.2 1851.3 1239.8 1852.2 C 1239.1 1853.9 1235.6 1854 1186.5 1854 C 1152.1 1854 1133.2 1853.6 1131.9 1853 C 1130.1 1852 1130 1850.4 1130 1810.9 C 1130 1764.4 1129.9 1765.3 1137.8 1758.3 C 1140.9 1755.5 1142.2 1753.8 1141.5 1753.1 C 1140.5 1752.1 1110.2 1751.2 1096.2 1751.8 M 1316.1 1752 C 1307.9 1752.6 1306.2 1754 1310.7 1756.5 C 1318.6 1761 1319.5 1761.7 1319.5 1764.2 C 1319.6 1765.7 1320.2 1767.5 1320.9 1768.3 C 1321.9 1769.6 1322.1 1790.5 1322 1871.1 L 1321.9 1972.4 1319.2 1977.4 C 1317.3 1981 1315.4 1983 1312.8 1984.3 C 1310.7 1985.2 1309 1986.6 1309 1987.4 C 1309 1990.8 1311.6 1991.2 1335.9 1991.2 C 1349.1 1991.2 1360.4 1990.9 1361 1990.5 C 1361.5 1990.2 1362 1988.9 1362 1987.7 C 1362 1986.2 1360.9 1985 1358.7 1984 C 1356.4 1982.9 1354.6 1980.7 1352.1 1976 L 1348.8 1969.5 1348.7 1871 L 1348.6 1772.5 1351.5 1766.6 C 1353.9 1761.7 1355.1 1760.4 1358.7 1758.8 C 1361.6 1757.5 1363 1756.3 1363 1755 C 1363 1754 1362.6 1752.9 1362.2 1752.6 C 1361 1751.9 1324.5 1751.4 1316.1 1752 M 1669 1751.8 C 1666.7 1752.6 1668.4 1755.7 1672.8 1758.6 C 1676.1 1760.7 1677.9 1762.8 1679 1765.6 C 1680.2 1768.9 1680.5 1784 1680.8 1868 C 1681.1 1958.4 1681 1966.9 1679.4 1972.7 C 1678.1 1977.5 1676.8 1979.8 1674.3 1982 C 1672.5 1983.7 1670.5 1985 1670 1985 C 1669.4 1985 1669 1986.4 1669 1988 L 1669 1991 1689.2 1990.8 C 1709.4 1990.5 1709.5 1990.5 1709.8 1988.2 C 1710.1 1986.4 1709.3 1985.6 1705.6 1984 C 1703.1 1983 1701 1981.4 1701 1980.7 C 1701 1979.9 1700.1 1978.1 1699 1976.8 C 1697.1 1974.3 1697 1972.3 1696.9 1882.9 C 1696.7 1792 1697 1785.5 1699.9 1793.3 C 1700.5 1794.7 1701.3 1796.1 1701.8 1796.4 C 1702.4 1796.7 1704 1799.3 1705.5 1802.2 C 1707 1805.1 1708.8 1808.2 1709.6 1809.1 C 1710.4 1809.9 1711 1811.1 1711 1811.6 C 1711 1812.1 1712.6 1814.8 1714.5 1817.7 C 1719.2 1824.7 1724.3 1832.8 1726.6 1836.6 C 1727.7 1838.4 1731.3 1843.8 1734.6 1848.8 C 1738 1853.7 1741.5 1859.4 1742.5 1861.3 C 1743.4 1863.3 1744.8 1865.4 1745.6 1866.1 C 1746.4 1866.7 1747 1867.8 1747 1868.5 C 1747 1870.1 1768.2 1902.1 1770.5 1904 C 1771.3 1904.7 1772 1906.1 1772 1907.1 C 1772 1908.1 1772.5 1909.2 1773 1909.5 C 1773.6 1909.9 1775.2 1912.5 1776.7 1915.3 C 1778.1 1918.2 1781 1923.1 1783.1 1926.2 C 1785.3 1929.3 1787 1932.2 1787 1932.6 C 1787 1933.2 1792.4 1941.7 1797 1948.5 C 1799 1951.3 1804.4 1959.5 1806.5 1962.9 C 1807 1963.8 1809.1 1966.9 1811 1969.9 C 1812.9 1972.8 1815.4 1976.8 1816.5 1978.9 C 1820.6 1986.4 1823.2 1989.9 1824.8 1990.4 C 1826.3 1990.8 1842.4 1991.4 1845.7 1991.1 C 1846.4 1991 1847.4 1990.1 1848 1989.1 C 1848.7 1987.8 1849.1 1951.2 1849.3 1878.8 L 1849.5 1770.5 1851.7 1765.8 C 1853.1 1762.8 1855.4 1760 1857.9 1758.3 C 1860.1 1756.7 1861.9 1754.7 1862 1753.8 C 1862 1752.3 1861 1752 1856.2 1751.9 C 1843.7 1751.6 1820.7 1752 1819.9 1752.6 C 1818 1753.8 1819.2 1756.2 1822.3 1757.5 C 1826.2 1759.1 1830.8 1765.3 1832.1 1770.7 C 1833.1 1775 1833.3 1933.6 1832.3 1941.8 C 1832 1945 1831.3 1946.9 1830.6 1946.7 C 1830 1946.5 1828.4 1944.4 1827 1941.9 C 1825.6 1939.4 1823.7 1936.3 1822.7 1935 C 1821.7 1933.6 1818.1 1928 1814.6 1922.5 C 1811 1917 1807.2 1911.3 1806.1 1909.9 C 1805 1908.4 1802.9 1905 1801.5 1902.4 C 1800.1 1899.7 1797.6 1895.5 1796 1893 C 1794.4 1890.5 1791.9 1886.4 1790.6 1883.8 C 1789.2 1881.2 1787.6 1878.9 1787 1878.5 C 1785.8 1877.7 1777.4 1865 1774.3 1859 C 1772.9 1856.5 1771.3 1854 1770.6 1853.5 C 1770 1853 1766.8 1848 1763.6 1842.5 C 1760.3 1837 1756.1 1830.1 1754.1 1827.2 C 1752.1 1824.2 1749.6 1820.4 1748.6 1818.7 C 1747.5 1816.9 1743.8 1811.2 1740.3 1805.9 C 1736.8 1800.6 1734 1795.9 1734 1795.3 C 1734 1794.8 1733.1 1793.5 1732 1792.5 C 1730.9 1791.5 1729.8 1789.8 1729.4 1788.6 C 1729 1787.5 1727 1784.3 1725 1781.5 C 1722.9 1778.7 1720.3 1774.7 1719.2 1772.5 C 1718.1 1770.3 1715.5 1766.2 1713.6 1763.5 C 1711.6 1760.8 1709.4 1757 1708.5 1755.2 C 1707.1 1752.4 1706.5 1752 1702.7 1751.9 C 1683 1751.6 1669.9 1751.6 1669 1751.8 M 1495.5 1765.6 C 1492.8 1766.4 1489.2 1767.5 1487.5 1767.9 C 1482.6 1769.3 1473.8 1773.7 1469.5 1776.9 C 1467.3 1778.6 1464.6 1780.4 1463.5 1780.9 C 1460.4 1782.3 1446.7 1795.3 1443.8 1799.7 C 1434.8 1813.3 1429 1823.8 1429 1826.6 C 1429 1827.5 1428.1 1829.3 1427 1830.7 C 1425.8 1832.2 1425 1834.8 1425 1836.9 C 1425 1838.9 1424 1842.3 1422.8 1844.5 C 1420.8 1848.2 1420.6 1849.8 1420.6 1868.5 C 1420.6 1887.3 1420.7 1888.8 1422.8 1892.8 C 1424 1895.2 1425 1898.7 1425 1900.7 C 1425 1902.7 1425.6 1905.1 1426.4 1905.9 C 1427.2 1906.8 1428.8 1910 1430 1913 C 1435.8 1927.4 1443.3 1938.7 1454.7 1950.3 C 1459.5 1955.1 1467.1 1961.6 1471.7 1964.6 C 1476.2 1967.6 1480.2 1970.5 1480.5 1971 C 1480.9 1971.6 1482.4 1972 1483.9 1972 C 1485.4 1972 1487 1972.4 1487.5 1972.9 C 1488.1 1973.3 1491 1974.5 1494 1975.5 C 1498.2 1976.9 1503.7 1977.5 1516.6 1977.8 C 1532.1 1978.2 1534.1 1978 1538.6 1976.2 C 1541.3 1975 1546 1973.3 1549 1972.4 C 1552 1971.4 1556.1 1969.7 1558 1968.6 C 1564.1 1965 1576.4 1955.4 1582.3 1949.7 C 1591.2 1940.9 1602.9 1922.6 1603 1917.1 C 1603 1916.2 1603.7 1914.6 1604.5 1913.6 C 1605.3 1912.5 1606 1910.6 1606 1909.3 C 1606 1908 1606.6 1905.6 1607.4 1904.1 C 1608.2 1902.6 1609.6 1895.2 1610.4 1887.6 C 1612.3 1870.2 1611.3 1858.9 1606.2 1842 C 1603.6 1833.4 1602 1829.1 1600.4 1825.8 C 1599.6 1824.4 1599 1822.4 1599 1821.3 C 1599 1820.3 1596.5 1816.1 1593.5 1812 C 1586.8 1802.9 1576.9 1790.1 1575.5 1788.9 C 1572.6 1786.2 1559.5 1777 1558.7 1777 C 1558.1 1777 1556.9 1776.4 1556.1 1775.6 C 1554.4 1774.1 1552.8 1773.4 1536.7 1767.6 C 1527.2 1764.1 1526.3 1764 1513.7 1764.1 C 1505.2 1764.1 1498.7 1764.7 1495.5 1765.6 M 788.6 1805.6 C 788.3 1806.5 788 1808.3 788 1809.6 C 788 1811 787.5 1813.1 786.9 1814.3 C 785.8 1816.2 778.2 1837.4 774 1850 C 773 1853 771.1 1858.6 769.6 1862.4 C 768.2 1866.2 767.3 1869.7 767.6 1870.2 C 767.9 1870.6 778.5 1871 791.1 1871 C 816.6 1871 816.8 1870.9 813.6 1864.7 C 812 1861.4 803.5 1838.7 802 1833.5 C 800.7 1828.7 798.9 1823.8 796.9 1819.4 C 795.8 1817.1 795 1814.5 795 1813.6 C 795 1811.4 791.2 1804 790.1 1804 C 789.6 1804 788.9 1804.7 788.6 1805.6 M 935.5 2099.6 C 932.5 2102.7 932 2103.8 932 2108 C 932 2115.1 935.2 2119.6 940.8 2120.5 C 947 2121.4 950.2 2120.4 953.3 2116.4 C 957.2 2111.6 957.7 2107.3 955.1 2102.3 C 952.9 2097.8 949.3 2096 942.8 2096 C 939.7 2096 938.3 2096.7 935.5 2099.6 M 924.8 2121.2 C 921.1 2122.8 919.6 2124.1 918 2127.4 C 916.4 2130.8 916.2 2132.2 917 2135 C 917.5 2136.8 919.2 2139.6 920.7 2141.2 C 923.1 2143.7 924.1 2144 929.6 2144 C 935.4 2144 936 2143.8 938.9 2140.5 C 940.6 2138.5 942 2136.3 942 2135.5 C 942 2132.5 944.1 2133 945.5 2136.3 C 947.7 2141.6 951.7 2144 958.2 2144 C 962.6 2144 964.1 2143.6 965.8 2141.7 C 967 2140.4 968 2138.9 968 2138.3 C 968 2137.7 968.7 2136.7 969.5 2136 C 971.5 2134.3 971.4 2132.4 968.9 2127.3 C 965.2 2119.6 957.1 2117.5 950.5 2122.6 C 948.5 2124.1 946.4 2126.4 945.9 2127.7 C 945.4 2129 944.6 2130 944 2130 C 943.5 2130 942 2128.3 940.6 2126.2 C 939.3 2124.2 937.6 2122 936.9 2121.4 C 934.2 2119.2 929.6 2119.1 924.8 2121.2 M 1032.1 2121 C 1030.3 2121.4 1027.6 2123 1026.2 2124.4 L 1023.6 2126.9 1023.2 2163.2 C 1022.8 2198.5 1022.8 2199.7 1025 2206 C 1027.6 2213.8 1032.7 2221.8 1038.9 2227.7 C 1045.2 2233.8 1052.4 2235.9 1065 2235.4 C 1070.2 2235.3 1076.4 2234.4 1078.6 2233.6 C 1083.1 2232 1090.4 2227.7 1091.5 2226 C 1092.5 2224.3 1095.8 2224.9 1097.3 2227 C 1098 2228.1 1100.4 2229.7 1102.6 2230.5 C 1104.7 2231.4 1108 2232.8 1109.8 2233.6 C 1112.3 2234.8 1115.9 2235.1 1124.3 2234.8 C 1134.3 2234.5 1136.1 2234.2 1141.2 2231.6 C 1144.4 2230 1147.7 2227.9 1148.6 2226.8 C 1150.7 2224.6 1153.3 2224.5 1155 2226.5 C 1155.7 2227.3 1158.8 2229.4 1161.9 2231.1 C 1167.1 2234 1168.4 2234.3 1179 2234.7 L 1190.6 2235.2 1197.6 2231.7 C 1201.5 2229.8 1205.2 2227.5 1205.9 2226.6 C 1207.5 2224.7 1211.6 2224.5 1212.7 2226.3 C 1213.1 2227.1 1216.5 2229.3 1220.1 2231.3 C 1226.5 2234.9 1227 2235 1237.2 2235 C 1248.5 2235 1252.3 2234.1 1258.4 2230.1 C 1267.2 2224.2 1266.7 2224.4 1268.9 2226.4 C 1271.3 2228.6 1281.6 2233.5 1286.1 2234.6 C 1290.6 2235.7 1305.4 2235.1 1310.5 2233.8 C 1312.7 2233.1 1315.3 2232 1316.3 2231.2 C 1318 2229.7 1320.4 2228.2 1324.8 2225.9 C 1326.7 2224.9 1327.4 2225 1329.3 2226.7 C 1333.2 2230.2 1338.4 2232.9 1344.1 2234.3 C 1348.4 2235.4 1357.6 2235.6 1388.2 2235.3 L 1427 2234.9 1433.2 2231.4 C 1440.9 2227.1 1443.8 2223.8 1449 2213.3 L 1453 2205.2 1453 2192.4 C 1453 2180.8 1452.8 2179.2 1450.4 2174.1 C 1449 2171 1446 2166.2 1443.9 2163.4 C 1441 2159.4 1438.5 2157.4 1432.7 2154.5 C 1426.2 2151.4 1424.1 2150.8 1416.9 2150.5 C 1410 2150.3 1407 2150.7 1400.1 2152.8 C 1392.4 2155.3 1391.3 2156 1386.3 2161.5 C 1376.5 2172.3 1375.2 2176.7 1374.2 2202 L 1373.5 2218.5 1368 2219.1 C 1365 2219.4 1359.5 2219.6 1355.9 2219.5 C 1350.4 2219.4 1348.8 2218.9 1345.8 2216.7 C 1343 2214.5 1341.9 2212.6 1340.1 2206.7 C 1338.3 2200.7 1338 2197 1338 2184 C 1338 2175.5 1338.5 2166.7 1339.1 2164.5 C 1339.7 2162.3 1340.4 2159.5 1340.7 2158.3 C 1341 2156.8 1340.4 2155.3 1338.7 2153.6 C 1336.5 2151.4 1335.2 2151 1330.7 2151 C 1323.8 2151 1319.6 2152.5 1317.4 2155.7 C 1316 2157.9 1315.7 2161.8 1315.3 2179.9 C 1314.9 2195.7 1314.4 2202.2 1313.4 2204.2 C 1312.6 2205.7 1312 2207.5 1312 2208.3 C 1312 2210.1 1307.4 2215.1 1303.8 2217.3 C 1302.1 2218.4 1298.9 2219 1295.5 2219 C 1290.3 2219 1289.6 2218.7 1285.4 2214.8 C 1281.8 2211.3 1280.6 2209.2 1279 2203.5 C 1276.8 2195.8 1276.4 2180.3 1278.1 2171.5 C 1278.7 2168.8 1279.3 2163.8 1279.7 2160.5 C 1280.3 2153.4 1279.9 2153 1272.3 2151.1 C 1267.4 2149.9 1266.8 2150 1262.9 2152.2 C 1255.2 2156.5 1255.1 2156.7 1254.6 2181.5 C 1254.1 2205.3 1253.7 2207.4 1248.2 2213.7 C 1245 2217.4 1241.3 2219 1236.2 2219 C 1233.2 2219 1231.6 2218.2 1228.2 2214.9 C 1225.9 2212.7 1224 2210 1224 2209 C 1224 2208.1 1223.3 2205.6 1222.4 2203.5 C 1220.2 2198.2 1220.2 2185.1 1222.4 2176.8 C 1224.6 2168.9 1224 2165.6 1220 2163.5 C 1215.9 2161.4 1208.2 2161.6 1204.3 2164 C 1199.3 2167 1198.3 2170.1 1197.6 2184.5 C 1196.8 2200.2 1195.4 2208.9 1193.2 2211.4 C 1192.2 2212.4 1189.7 2214.6 1187.6 2216.1 C 1184.6 2218.3 1182.6 2219 1179 2219 C 1174.6 2219 1173.9 2218.6 1169.5 2213.9 C 1165.7 2209.9 1164.9 2208.4 1165.4 2206.4 C 1165.8 2205.1 1165.6 2201.1 1165 2197.5 C 1164.2 2192.8 1164.3 2187.8 1165.1 2180 C 1165.7 2174 1166 2168 1165.6 2166.6 C 1164.9 2163.7 1160.7 2162 1154.3 2162 C 1144.9 2162 1141.6 2167.8 1140.5 2186.3 C 1139.2 2208.3 1139.3 2207.9 1136.5 2211.2 C 1131.9 2216.7 1129.2 2218.2 1123.2 2218.7 C 1118 2219.1 1117.1 2218.9 1113.3 2216.1 C 1110.5 2214 1108.9 2211.9 1108.5 2209.7 C 1108.1 2207.9 1107.1 2205.7 1106.2 2204.7 C 1104.9 2203.2 1104.7 2200 1104.9 2184.9 C 1105 2171.2 1105.4 2166.1 1106.5 2163.9 C 1108.3 2160.5 1108.4 2155 1106.8 2152.7 C 1105.8 2151.4 1103.7 2150.9 1097.9 2150.7 C 1090.8 2150.5 1090.1 2150.7 1086.8 2153.5 C 1084.8 2155.2 1083 2157.4 1082.6 2158.5 C 1082.3 2159.6 1082 2169.3 1082 2180 C 1082 2190.7 1081.5 2201.5 1080.9 2203.9 C 1078.9 2212.9 1071.6 2219 1063.1 2219 C 1058.7 2219 1057.5 2218.5 1054.5 2215.8 C 1052.3 2213.7 1050.2 2210.3 1048.9 2206.5 C 1047 2201.2 1046.7 2197.7 1046.3 2175 C 1045.9 2154.9 1046.1 2146.9 1047.4 2137.1 C 1049 2125.2 1049 2124.5 1047.3 2122.9 C 1045.2 2120.8 1036.9 2119.7 1032.1 2121 M 1073.2 2121.4 C 1069.4 2123.2 1068 2126.3 1068 2133.1 C 1068 2137.4 1068.5 2138.6 1071.2 2141.3 C 1074.1 2144.2 1074.8 2144.5 1079.9 2144.3 C 1084.7 2144.1 1085.9 2143.6 1088.2 2141.1 C 1089.7 2139.4 1091.2 2136.5 1091.6 2134.5 C 1092.4 2129.8 1090.2 2123.9 1086.9 2122.3 C 1082.6 2120.2 1076.8 2119.9 1073.2 2121.4 M 1101.4 2121.9 C 1096.4 2124.2 1094.5 2128.1 1095.4 2134.4 C 1095.9 2137.8 1097 2139.6 1099.6 2142 C 1102.9 2144.8 1103.5 2145 1108.3 2144.4 C 1112.2 2143.9 1114.3 2143 1116.8 2140.7 C 1119.4 2138.2 1120 2136.8 1120 2133.4 C 1120 2131.1 1119.4 2127.7 1118.6 2125.8 C 1117.5 2123.1 1116.2 2122.1 1113.2 2121.2 C 1108 2119.6 1106.2 2119.7 1101.4 2121.9 M 1408.3 2121.4 C 1402.2 2124.2 1399.6 2131.3 1402.5 2137.5 C 1404.8 2142.2 1407.8 2144.1 1413.2 2144.3 C 1416.8 2144.5 1418.4 2143.9 1421.8 2141.2 C 1424.6 2138.9 1426.1 2136.8 1426.5 2134.6 C 1427.3 2130.4 1425 2124.7 1421.6 2122.5 C 1418.1 2120.2 1412.1 2119.7 1408.3 2121.4 M 1000.7 2151.1 C 999.6 2151.7 997.8 2152 996.4 2151.7 C 994.9 2151.4 993.4 2152 992.2 2153.4 C 987.9 2158.1 987.6 2159.9 987.4 2179 C 987.1 2197.7 986.8 2201.8 984.7 2208 C 983.2 2212.6 981.3 2214.8 976.8 2217.1 C 971.3 2219.9 964.9 2219.6 961.1 2216.4 C 959.4 2215 958 2213.2 958 2212.4 C 958 2211.7 957 2209.2 955.9 2207 C 953.6 2202.7 953.6 2201.6 955.3 2169.5 C 955.5 2165.9 955.2 2165.4 951.5 2163.3 C 945.2 2159.8 937.2 2161.6 933.3 2167.6 C 931.9 2169.7 931.5 2173.3 931.2 2185.9 C 931 2197.2 930.5 2202.1 929.4 2203.7 C 928.6 2204.9 928 2206.7 928 2207.7 C 928 2208.6 925.7 2211.6 922.9 2214.2 C 918.2 2218.6 917.4 2219 912.8 2219 C 909 2219 907.1 2218.4 904.4 2216.4 C 902.5 2214.9 901 2213.3 901 2212.8 C 901 2212.3 900.1 2210.7 899.1 2209.2 C 897.5 2206.9 897.1 2204.1 896.7 2191.5 C 896.2 2179.7 896.4 2176 897.5 2174 C 899.5 2170.4 899.3 2166.6 897 2164.5 C 893.8 2161.6 884.4 2161.3 880.3 2163.9 C 874.2 2167.7 873.6 2169.8 873 2187.5 C 872.5 2201.9 872.2 2204 870 2208.4 C 868.6 2211.1 866 2214.5 864 2216.1 C 861 2218.6 859.7 2219 854.2 2219 C 848.1 2219 847.6 2218.8 843.9 2215.1 C 841.7 2213 840 2210.4 840 2209.4 C 840 2208.3 839.3 2205.7 838.5 2203.5 C 836.5 2197.9 836.6 2176.6 838.6 2166 C 839.4 2161.4 839.9 2156.6 839.6 2155.4 C 838.8 2152.5 835.6 2151.5 827.3 2151.5 C 822.6 2151.5 820.4 2152 818.3 2153.6 C 815.8 2155.5 815.4 2156.7 814.3 2164.6 C 813.6 2169.5 813.3 2175.3 813.6 2177.5 C 813.9 2179.7 813.7 2186.9 813 2193.5 C 811.8 2207.3 809.7 2212.6 804 2216.5 C 801.4 2218.3 799 2219.1 795.9 2219.1 C 783.7 2219.1 780.5 2218.9 779.6 2218 C 778.9 2217.5 778.5 2213 778.6 2206.3 C 779 2181.2 774.9 2168.4 763.1 2158.4 C 757 2153.1 750 2151 739 2151 C 724.8 2151 717.3 2153.7 710.3 2161.3 C 703.3 2168.9 699.9 2177.1 698.5 2189.5 C 697.5 2198.4 700.7 2211.2 706 2218.8 C 711.2 2226.5 713.9 2229.1 719.5 2231.9 C 724 2234.1 738.3 2236.6 740.1 2235.4 C 740.6 2235.1 744.2 2235.2 748 2235.6 L 755 2236.3 755 2241 C 755 2243.9 754.4 2246.2 753.6 2246.9 C 752.8 2247.6 751.8 2249.5 751.5 2251.1 C 751.1 2252.7 749.5 2255 747.7 2256.2 C 745 2258.1 742.9 2258.6 734.8 2258.8 C 727.4 2259.1 724.3 2258.8 721.9 2257.6 C 717.7 2255.5 716.8 2255.6 714.2 2258.3 C 712.6 2260 712 2261.9 712 2265.3 C 712 2269.3 712.4 2270.2 715.2 2272.3 C 719.3 2275.3 722.6 2276.1 731.5 2276.1 C 750 2276 756.4 2274.2 764.9 2266.5 C 769.6 2262.2 778 2245.8 778 2240.7 C 778 2238.3 778.5 2237 779.8 2236.5 C 780.7 2236.1 786.9 2235.6 793.5 2235.5 C 804.2 2235.2 806.3 2234.8 813 2232.1 C 817.1 2230.4 821.1 2228.1 821.9 2227 C 822.6 2225.9 823.9 2225 824.6 2225 C 825.4 2225 828.1 2226.5 830.8 2228.4 C 837.9 2233.6 843.8 2235.2 855.1 2235.2 C 866.4 2235.1 871.7 2233.7 879.2 2228.4 C 883.3 2225.5 884.7 2225 885.9 2225.8 C 886.8 2226.5 890.4 2228.7 894 2230.7 C 900.3 2234.4 900.9 2234.5 911.3 2234.8 C 920.7 2235.1 922.8 2234.9 927.3 2233 C 930.2 2231.8 934.4 2229.5 936.8 2227.9 C 941.6 2224.7 943.8 2224.3 944.6 2226.4 C 945.1 2227.8 952.1 2231.5 958.7 2234 C 960.8 2234.8 965.9 2235.1 973.2 2234.8 C 982.4 2234.5 985.3 2234 988.7 2232.2 C 993.9 2229.5 1000 2224.2 1000 2222.5 C 1000 2221.8 1000.9 2220.1 1002 2218.7 C 1003.1 2217.3 1004 2215.5 1004 2214.7 C 1004 2214 1004.9 2212.5 1006 2211.5 C 1007.4 2210.2 1008 2208.4 1008 2205.4 C 1008 2203.1 1008.9 2199.1 1010 2196.6 C 1011.4 2193.3 1011.8 2190.8 1011.4 2187.3 C 1010.9 2183.1 1011.9 2169.9 1013.7 2157.7 C 1014.2 2154.2 1014 2153.9 1010.8 2152.6 C 1005.4 2150.3 1002.6 2149.9 1000.7 2151.1 M 668.9 2163.5 C 667.4 2164.3 665.3 2166.6 664.1 2168.5 C 662.1 2171.9 662 2173.5 661.9 2196.8 C 661.9 2210.4 661.5 2224.4 661.1 2228 C 660.2 2234.9 656.2 2245.5 652.6 2250.3 C 647.5 2257.2 631.4 2260.9 621.2 2257.6 C 615.2 2255.6 608.7 2249.4 606.8 2243.8 C 606 2241.4 604.7 2237.9 604 2236 C 601.8 2229.9 600.9 2217.2 602 2206.6 C 603.6 2190.9 603.7 2191.3 598.8 2189.9 C 593.3 2188.5 586.8 2189.2 583.4 2191.8 C 581.3 2193.3 580.3 2195.2 579.4 2199.6 C 577.7 2207.4 577.7 2214.1 579.4 2228 C 580.9 2239.9 582.6 2245.6 586.8 2252.4 C 590.3 2258 597.9 2265.9 601.5 2267.6 C 603.1 2268.4 605.9 2269.8 607.5 2270.7 C 612.8 2273.6 613.9 2274 616.4 2274 C 617.7 2274 620.7 2274.7 623.1 2275.5 C 626.5 2276.7 628.5 2276.9 632 2276.1 C 634.5 2275.5 639.4 2274.8 643 2274.4 C 650.1 2273.7 658.2 2270.4 662.4 2266.5 C 663.9 2265.1 666.4 2263.3 668 2262.5 C 669.6 2261.7 671.5 2260 672.1 2258.7 C 672.8 2257.5 674.3 2255.3 675.4 2253.9 C 676.6 2252.5 678.2 2249.4 678.9 2246.9 C 679.6 2244.5 681.2 2239.8 682.3 2236.5 C 684.2 2231.2 684.4 2228.1 684.6 2204.5 C 684.7 2183.1 685.1 2177.8 686.4 2174.8 C 688.9 2169 688.5 2166.3 684.8 2164 C 680.9 2161.6 672.8 2161.4 668.9 2163.5 M 733.2 2168 C 729.8 2169.4 724 2175.2 724 2177 C 724 2177.9 723.3 2179.5 722.5 2180.6 C 721.5 2182 721.1 2185.3 721 2192.8 C 721 2201.7 721.3 2203.5 723 2205.7 C 724.1 2207.1 725 2209.1 725 2210.2 C 725 2211.2 726.7 2213.7 728.8 2215.5 L 732.5 2219 743.8 2219 L 755 2219 755.2 2211.2 C 755.4 2207 755.3 2198.6 755.1 2192.5 C 754.8 2183.6 754.4 2181.1 752.9 2179.1 C 751.8 2177.8 751 2176 750.9 2175.1 C 750.9 2174.2 749.4 2172.3 747.5 2170.7 C 743.9 2167.7 737 2166.4 733.2 2168 M 1404.5 2171.2 C 1400.5 2175.2 1400.2 2176.1 1398.6 2185 C 1397.4 2191.4 1397 2198.4 1397.2 2206.5 L 1397.5 2218.5 1409.1 2218.8 L 1420.7 2219.1 1424.3 2215.1 C 1428.9 2210 1430.2 2204.9 1430.3 2192 C 1430.3 2181.1 1429.6 2178.4 1424.7 2171.7 C 1422.5 2168.8 1417.7 2167 1412.1 2167 C 1409.5 2167 1407.8 2167.9 1404.5 2171.2 M 628 2171 C 626.1 2172 623.4 2174.4 622.2 2176.4 C 619.9 2179.8 619.9 2180 621.4 2185.4 C 623.2 2191.7 625.7 2193.9 631.7 2194.7 C 637.6 2195.4 642 2191.9 644.4 2184.6 C 646.2 2178.9 646.2 2178.7 644.3 2176.2 C 639.6 2169.9 633.5 2168 628 2171 M 805.9 2242.3 C 801.1 2244.8 798 2249.6 798 2254.4 C 798 2256.2 799.3 2258.9 801.5 2261.6 C 804.2 2264.8 805.9 2266 808.9 2266.5 C 812.1 2267 813.6 2266.7 816.9 2264.5 C 826.2 2258.7 825.3 2246.4 815.4 2242 C 812.8 2240.9 810.6 2240 810.5 2240 C 810.4 2240 808.3 2241 805.9 2242.3 M 1309.1 2241.6 C 1303.5 2243.3 1302.1 2244.5 1299.9 2249.7 L 1298.1 2254 1300.8 2259.2 C 1303 2263.6 1304.2 2264.7 1307.5 2265.9 C 1315.8 2268.7 1323.2 2263.9 1324.7 2254.6 C 1325.4 2250.1 1322.1 2244.6 1317.1 2242.1 C 1313.9 2240.5 1313 2240.5 1309.1 2241.6 M 832.8 2243.5 C 830.7 2244.9 828.6 2246.9 828 2248 C 826.2 2251.4 826.9 2256.4 830 2261.3 C 832.9 2266 833 2266 838.5 2266 C 841.6 2266 845 2265.5 846.1 2265 C 847.1 2264.4 849.1 2261.7 850.5 2259 C 853 2254.1 853 2254.1 851.2 2249.3 C 849.9 2245.7 848.6 2244.1 846 2242.8 C 841.2 2240.3 837.1 2240.6 832.8 2243.5 M 1337 2242.5 C 1336.3 2243.3 1334.7 2244 1333.5 2244 C 1330.9 2244 1329.9 2245.1 1328.1 2250.3 C 1326.9 2253.8 1327 2254.6 1329.5 2259.6 C 1331.2 2263.2 1332.9 2265.1 1334.3 2265.4 C 1341 2266.8 1344.2 2267 1345.9 2266.1 C 1348.8 2264.5 1351.7 2259 1352.4 2253.6 C 1353 2249 1352.8 2248.6 1349.1 2244.9 C 1346.1 2241.9 1344.5 2241 1341.7 2241 C 1339.8 2241 1337.7 2241.7 1337 2242.5 M 635.9 2420.2 C 635.8 2420.5 635.4 2425 634.9 2432 C 634.5 2437.4 635.9 2490 636.4 2490.9 C 636.8 2491.5 638.8 2492 640.9 2492 L 644.7 2492 644.9 2476.9 C 645.1 2460.3 645.8 2457.3 650.8 2452.7 C 653.5 2450.1 654.5 2449.8 660.7 2449.8 C 673.6 2449.7 675.2 2452.4 676 2475.5 L 676.5 2491.5 680 2491.5 L 683.5 2491.5 684.1 2474.5 C 684.5 2465.2 684.3 2455.9 683.9 2453.9 C 682.7 2448.8 676.2 2442.4 670.8 2440.9 C 664.2 2439 656.8 2439.4 651.8 2441.9 C 644.6 2445.3 644.7 2445.4 645.2 2432.5 C 645.5 2423.4 645.3 2421 644.2 2420.5 C 642.8 2420 636.1 2419.8 635.9 2420.2 M 914.6 2420.8 C 913.6 2422.4 913.8 2490.2 914.8 2491.2 C 915.3 2491.7 917.7 2492 920.1 2491.8 L 924.5 2491.5 924.6 2486.3 C 924.7 2482.2 925.4 2480.1 927.6 2476.9 C 929.1 2474.6 931.5 2472.3 932.9 2471.6 C 935.1 2470.6 935.8 2471 941.2 2477 C 944.5 2480.6 948.6 2485.4 950.3 2487.8 C 953.3 2492 953.5 2492.1 958.4 2491.8 C 965.1 2491.4 965.3 2489.7 959.5 2483.6 C 957 2481 955 2478.4 955 2478 C 955 2477.5 952.5 2474.2 949.5 2470.6 C 946.5 2467.1 944 2463.4 944 2462.6 C 944 2461.7 945.4 2459.7 947.1 2458.2 C 948.8 2456.7 950.9 2454.7 951.9 2453.7 C 952.8 2452.8 955.2 2450.2 957.2 2448 C 961.3 2443.8 961.8 2441.9 959.5 2440 C 956.4 2437.5 951.9 2440 941.4 2450 C 931.6 2459.4 926.4 2463.7 925.5 2462.9 C 925.2 2462.6 925 2447 925 2432 C 925 2430.6 924.9 2427.5 924.8 2425 L 924.5 2420.5 919.8 2420.2 C 917.3 2420 914.9 2420.3 914.6 2420.8 M 786.9 2425.2 C 786.4 2426.1 786 2441.3 786 2458.9 C 786 2483.3 786.3 2491.1 787.2 2491.7 C 787.9 2492.1 797.9 2492.3 809.5 2492.2 C 827.7 2491.9 831.2 2491.6 835.5 2489.9 C 844.8 2486.3 848.5 2476.1 844.1 2466.5 C 843.1 2464.3 841.1 2461.4 839.6 2460.1 C 838.2 2458.7 837 2457.2 837 2456.6 C 837 2456.1 838.1 2454 839.4 2452.1 C 840.7 2450.1 842.1 2446.7 842.4 2444.5 C 842.9 2441.3 842.5 2439.4 840.3 2435.1 C 838 2430.7 836.5 2429.1 832.4 2426.9 C 827.5 2424.3 826.8 2424.2 807.6 2423.9 C 789.8 2423.5 787.7 2423.7 786.9 2425.2 M 1151.2 2424.3 C 1149.8 2426 1149.4 2489.8 1150.8 2491.2 C 1151.3 2491.7 1153.5 2492 1155.6 2491.8 L 1159.5 2491.5 1160 2477.8 C 1160.3 2470.3 1160.8 2463.9 1161.1 2463.5 C 1161.5 2463.2 1169.4 2462.7 1178.8 2462.5 C 1192.6 2462.1 1196.1 2462.3 1197.3 2463.4 C 1198.7 2464.8 1199.6 2476.9 1199.1 2487.8 L 1199 2492.1 1203.2 2491.8 L 1207.5 2491.5 1208.3 2478.3 C 1208.8 2471 1208.8 2455.9 1208.3 2444.8 L 1207.5 2424.5 1203.6 2424.5 L 1199.6 2424.5 1199.3 2437 C 1199 2446.3 1198.6 2449.9 1197.5 2450.9 C 1196.3 2452.1 1192.6 2452.4 1179.8 2452.5 C 1170.8 2452.6 1162.7 2452.2 1161.8 2451.8 C 1160.2 2451 1160 2449.4 1160 2438.5 C 1160 2426.8 1159.9 2426 1157.8 2424.6 C 1155.1 2422.7 1152.6 2422.6 1151.2 2424.3 M 571.7 2424.7 C 570.4 2425.9 571 2428.7 572.8 2430.3 C 574.2 2431.6 576.7 2432 583.2 2432 C 589.3 2432 592.1 2432.4 592.9 2433.4 C 593.7 2434.4 594 2442.9 594 2462.4 C 593.9 2477.6 594.2 2490.4 594.5 2491 C 595.4 2492.4 603.7 2492.2 604.7 2490.8 C 605.1 2490.1 605.3 2477.2 605.3 2462.1 C 605.1 2443.6 605.4 2434.2 606.2 2433.3 C 606.9 2432.4 610.1 2432 616.6 2432 C 625.5 2432 626 2431.9 627.6 2429.5 C 628.5 2428.1 629 2426.3 628.6 2425.5 C 628.1 2424.2 624.1 2424 600.2 2424 C 584.9 2424 572 2424.3 571.7 2424.7 M 796.9 2432.2 C 796.8 2432.4 796.7 2436.9 796.6 2442.3 C 796.4 2450.3 796.7 2452.3 798 2453 C 799.8 2453.9 815.6 2453.6 822 2452.5 C 826.4 2451.8 832 2447.8 832 2445.6 C 832 2441.5 829.6 2437 826.2 2434.6 C 822.6 2432.1 821.8 2432 809.7 2432 C 802.7 2432 796.9 2432.1 796.9 2432.2 M 869.6 2440.2 C 861 2441.4 855.7 2444.9 856.2 2448.9 C 856.6 2452.1 859.2 2452.7 865.2 2450.7 C 870.2 2449.1 880.3 2449.3 883.6 2451 C 886.3 2452.5 888.3 2456.8 887.8 2460.2 C 887.5 2462.4 887.2 2462.5 876.6 2462.7 C 862.1 2462.9 858.3 2464.4 855.2 2470.7 C 854 2473.4 853 2476.8 853 2478.3 C 853 2482.1 855.6 2488 857.3 2488 C 858.1 2488 859.5 2488.9 860.5 2490 C 861.5 2491.1 863.1 2492 864.1 2492 C 865.1 2492 867.9 2492.5 870.4 2493.2 C 874 2494.2 875.6 2494.1 880.1 2492.7 C 884 2491.4 887.2 2491.2 891.6 2491.6 C 895.6 2492 898 2491.9 898.4 2491.2 C 898.8 2490.5 899.2 2484.1 899.4 2476.8 C 899.7 2465.7 899.4 2462.3 897.7 2456 C 896.6 2451.9 894.5 2447.1 893.2 2445.3 C 889.5 2440.3 881.4 2438.5 869.6 2440.2 M 988 2440.4 C 981.5 2442.2 978.7 2443.9 974.2 2449 C 969.7 2454.2 968.7 2457.6 968.7 2468 C 968.6 2474.8 969 2476.1 972.1 2481.5 C 976.2 2488.5 980.1 2491 989.6 2492.9 C 995 2494 997.2 2494 1002.3 2492.9 C 1011.8 2491 1019.1 2484.2 1016 2480.5 C 1014 2478.2 1009.1 2478.7 1005.7 2481.6 C 1002.8 2484.1 1002.1 2484.2 995.6 2483.7 C 985.7 2482.8 978.7 2477.7 980.6 2472.6 C 981.1 2471.2 983.2 2471 995.4 2470.9 C 1003.1 2470.9 1011.4 2470.9 1013.6 2471 C 1016.9 2471.1 1018.1 2470.7 1019.4 2468.8 C 1021.5 2465.9 1021.4 2463.5 1019 2456.5 C 1014.9 2444.5 1000.4 2436.9 988 2440.4 M 1063.6 2439.8 C 1063.2 2440.2 1059.5 2440.5 1055.5 2440.5 C 1049.3 2440.5 1047.8 2440.8 1045.8 2442.8 C 1044.4 2444 1042.9 2445 1042.4 2445 C 1041.9 2445 1041 2444 1040.5 2442.8 C 1039.4 2440.4 1034.5 2439.1 1032.8 2440.8 C 1031.6 2442 1031.7 2491.1 1032.9 2492.3 C 1033.6 2493 1035.1 2493 1037.2 2492.4 L 1040.5 2491.4 1041.1 2477 C 1041.6 2465.4 1042.1 2461.6 1043.8 2457.9 C 1046.2 2452.4 1051.5 2448.6 1055.3 2449.6 C 1057.2 2450 1058.1 2449.7 1059 2448.1 C 1059.6 2446.9 1060.6 2446 1061.3 2446 C 1062 2446 1063.8 2448.8 1065.3 2452.3 C 1066.9 2455.7 1068.6 2459.2 1069.1 2460 C 1069.6 2460.8 1070.3 2462.3 1070.7 2463.4 C 1071 2464.4 1072.4 2467.3 1073.7 2469.7 C 1074.9 2472.1 1076 2474.9 1076 2476 C 1076 2477 1076.6 2479.1 1077.4 2480.7 C 1082.5 2490.9 1082.4 2490.5 1081 2495.5 C 1079.9 2499.4 1079.1 2500.5 1076.4 2501.6 C 1072.5 2503.2 1067.6 2503.4 1065 2502 C 1062.5 2500.6 1060.1 2501.7 1059.4 2504.7 C 1058.5 2508 1061 2510.4 1067.1 2512.4 C 1071.6 2513.9 1072.4 2513.9 1076.8 2512.5 C 1085.1 2509.7 1089.6 2503.7 1095 2488.4 C 1096 2485.6 1097.3 2482.5 1097.9 2481.4 C 1099.5 2478.5 1108 2459.1 1108 2458.2 C 1108 2457.8 1109.1 2455.9 1110.4 2454 C 1111.6 2452.1 1113.3 2448.8 1114 2446.7 C 1115 2443.4 1115 2442.6 1113.4 2440.9 C 1109.8 2436.9 1107.1 2438.8 1102.8 2448 C 1101.4 2451 1098.2 2457.8 1095.7 2463 C 1093.3 2468.2 1091 2473.5 1090.6 2474.8 C 1089.4 2478.5 1086.9 2477.3 1085.2 2472.2 C 1084.6 2470.4 1083.2 2467.6 1082 2466.1 C 1080.9 2464.5 1080 2462.6 1080 2461.8 C 1080 2461.1 1079.1 2459.2 1078 2457.5 C 1076.9 2455.8 1076 2453.8 1076 2452.9 C 1076 2452 1075.1 2450.1 1074 2448.7 C 1072.9 2447.3 1072 2445.3 1072 2444.1 C 1072 2440.8 1065.8 2437.5 1063.6 2439.8 M 1243.3 2439.9 C 1240.5 2440.2 1237.3 2441.3 1236.3 2442.3 C 1235.2 2443.2 1233.9 2444 1233.4 2444 C 1231.7 2444 1225.4 2451.3 1223.2 2455.8 C 1220.8 2460.4 1220.3 2468.4 1221.9 2475.2 C 1222.8 2479 1227.5 2485.2 1232.4 2489.1 C 1234 2490.4 1237.1 2491.7 1239.4 2492.1 C 1241.6 2492.5 1244.8 2493.2 1246.3 2493.6 C 1250.2 2494.5 1259.6 2492.2 1264.5 2489.1 C 1272 2484.4 1273.9 2480.8 1275.7 2468.4 C 1276.1 2465.5 1275.6 2462.2 1274.1 2457.7 C 1272.4 2452.6 1270.8 2450.2 1267.1 2446.7 C 1260.7 2440.7 1253.3 2438.6 1243.3 2439.9 M 1415.5 2440 C 1408.8 2441 1403.4 2444.8 1398.4 2452 C 1394.7 2457.5 1394.3 2458.6 1394.2 2465.1 C 1393.9 2474.6 1395.2 2478.8 1400 2484.3 C 1405.6 2490.6 1411 2493 1420.1 2493.2 C 1429 2493.4 1434.6 2492.1 1438.8 2489 C 1442.8 2486 1443.7 2483.4 1441.4 2480.9 C 1439.1 2478.3 1436.6 2478.5 1433.3 2481.6 C 1430.7 2484 1430 2484.2 1422.9 2483.8 C 1416.5 2483.4 1414.7 2482.9 1411.6 2480.5 C 1406.7 2476.8 1405.6 2474.6 1407.5 2472.6 C 1408.8 2471.4 1412.1 2471.1 1426.2 2471.1 C 1445.7 2471.2 1446.4 2471 1446.3 2463.8 C 1446.3 2457.8 1442.1 2449 1437.4 2445.2 C 1431.7 2440.5 1424 2438.6 1415.5 2440 M 710.5 2442.4 C 704.4 2445.6 699.8 2451 697.1 2458.1 C 695.3 2462.7 695.2 2464.3 696 2469.6 C 697.4 2478.4 701.2 2485.5 705.8 2488 C 707.8 2489.1 710.2 2490.4 711 2490.9 C 718.9 2495.4 732.3 2494.6 739.7 2489.1 C 743.6 2486.2 744.2 2484.7 743 2481.5 C 741.7 2478 737.1 2478.1 734.1 2481.6 C 732 2484.1 731.4 2484.2 724.2 2483.9 C 717.4 2483.5 716 2483.1 712.7 2480.5 C 708.8 2477.4 707 2473.6 708.7 2471.9 C 709.3 2471.3 717.3 2470.9 727.9 2470.9 L 746 2471 747.1 2468.6 C 747.8 2467.1 748 2464 747.6 2460.6 C 746.7 2454 742.9 2448.3 736.2 2443.6 C 732.6 2441 731 2440.6 723.8 2440.2 C 716.4 2439.9 715 2440.1 710.5 2442.4 M 1287.9 2442.2 C 1287 2443.8 1286.7 2449.6 1286.9 2461.4 C 1287.1 2476 1287.4 2478.8 1289.2 2482.4 C 1291.6 2487.4 1297.4 2491.2 1305 2492.9 C 1309.9 2494 1311.4 2493.9 1318 2492.2 C 1323 2490.8 1326 2490.4 1327.1 2491.1 C 1329.8 2492.5 1335.6 2492.2 1337 2490.5 C 1337.9 2489.4 1337.9 2488.3 1336.9 2485.6 C 1336 2483.2 1335.9 2481.4 1336.6 2479.8 C 1337.2 2478.4 1337.3 2473.6 1337 2468 C 1336.6 2462.8 1336.5 2455.1 1336.8 2450.9 C 1337.2 2443.8 1337.1 2443.2 1334.9 2441.7 C 1332.1 2439.7 1328.6 2439.5 1327.2 2441.2 C 1326.7 2441.9 1326 2449.5 1325.8 2458 C 1325.5 2472.1 1325.2 2473.9 1323.1 2477.3 C 1319.7 2482.8 1317.4 2484 1310.5 2484 C 1305 2484 1304.1 2483.7 1301.5 2481 C 1298.1 2477.4 1297.2 2472.4 1297.1 2455.5 C 1297 2447.2 1296.6 2443.9 1295.4 2442.2 C 1293.4 2439.3 1289.4 2439.3 1287.9 2442.2 M 1355.4 2441.9 C 1349.5 2444.6 1348 2447.2 1348 2455 C 1348 2460.2 1348.5 2462.2 1350.4 2465 C 1352.3 2467.9 1353.9 2468.8 1359.3 2470.3 C 1362.9 2471.2 1366.9 2472 1368.2 2472 C 1369.4 2472 1372.7 2473 1375.3 2474.2 C 1378.9 2476 1380 2477 1379.8 2478.5 C 1379.3 2481.9 1373.5 2484 1364.4 2484 C 1357.8 2484 1355.8 2483.6 1353.7 2482 C 1352.3 2480.9 1350.7 2480 1350.1 2480 C 1349.5 2480 1348.3 2481.4 1347.5 2483.1 C 1346 2486 1346 2486.3 1347.7 2488.3 C 1348.7 2489.5 1349.5 2490.6 1349.6 2490.8 C 1349.6 2490.9 1352.4 2491.7 1355.6 2492.6 C 1361.5 2494.2 1365.1 2494.1 1375.9 2492.1 C 1379.8 2491.4 1382.3 2490.2 1384.6 2487.9 C 1387.3 2485.3 1387.9 2483.9 1388.2 2479.1 C 1388.5 2474.8 1388.2 2472.7 1386.7 2470.1 C 1384.2 2465.9 1378.1 2463 1371.5 2463 C 1368.4 2463 1364.7 2462.2 1361.8 2460.8 C 1357.9 2458.9 1357 2458.1 1357 2455.9 C 1357 2452.6 1359.4 2450.5 1364.8 2449.1 C 1369.9 2447.7 1375.5 2448.5 1379.3 2451.1 C 1382.1 2453.1 1384 2452.9 1384 2450.6 C 1384 2449.8 1384.7 2448.7 1385.5 2448 C 1387.7 2446.2 1387.4 2445.3 1383.3 2442.5 C 1379.9 2440.2 1378.6 2440 1369.5 2440 C 1361.9 2440 1358.5 2440.5 1355.4 2441.9 M 713.6 2451.5 C 712.1 2452.9 710.5 2454 710.1 2454 C 709.6 2454 708.7 2455.3 708 2457 C 705.8 2462.3 707.4 2463 721.5 2463 C 728.3 2463 734.5 2462.7 735.4 2462.4 C 737.9 2461.5 737.2 2457.8 734.1 2454.3 C 730 2449.9 727.9 2449 721.7 2449 C 717.3 2449 715.8 2449.5 713.6 2451.5 M 984.2 2452.8 C 979.5 2457 978.5 2461.4 981.9 2462.5 C 984 2463.1 1005.6 2463 1008.2 2462.3 C 1011.1 2461.6 1010.2 2458.8 1005.5 2453.8 C 1001.1 2449 1001 2449 994.8 2449 C 989 2449.1 988.2 2449.4 984.2 2452.8 M 1237.3 2452.9 C 1234.2 2455.8 1233.2 2457.7 1232.1 2462.7 C 1230.8 2468.9 1230.8 2469.1 1233.6 2474.6 C 1237.6 2482.6 1239.8 2484 1248 2484 C 1253.7 2484 1255.2 2483.6 1258.3 2481.2 C 1263 2477.7 1265.5 2470.3 1264.7 2462.5 C 1264.3 2458.1 1263.5 2456.5 1260.7 2453.7 C 1257.6 2450.5 1256.8 2450.2 1249.2 2449.8 L 1241.1 2449.3 1237.3 2452.9 M 1410.5 2453.4 C 1405.8 2457.9 1404.7 2461.6 1407.8 2462.3 C 1411.7 2463.3 1434.8 2463.1 1435.4 2462.1 C 1435.8 2461.6 1435.1 2459.1 1434 2456.6 C 1432.3 2453.2 1430.9 2451.8 1427.9 2450.6 C 1425.7 2449.7 1421.9 2449 1419.5 2449 C 1415.5 2449 1414.4 2449.5 1410.5 2453.4 M 797 2463.5 C 796.5 2464.1 796.2 2468.8 796.3 2474 L 796.5 2483.5 810 2483.8 C 817.4 2484 824.9 2483.8 826.6 2483.5 C 830.2 2482.9 833.4 2478.9 834.4 2473.8 C 834.9 2470.8 834.6 2469.7 832.7 2467.4 C 830.9 2465.4 828.9 2464.5 824.4 2463.7 C 816.4 2462.4 798 2462.3 797 2463.5 M 871.1 2472 C 867.1 2472.6 863 2475.7 863 2478 C 863 2478.5 864.2 2480.2 865.6 2481.9 C 867.8 2484.6 868.9 2485 872.8 2485 C 880.6 2485 884.6 2483.4 886.4 2479.6 C 888.3 2475.5 888.4 2473.8 886.8 2472.2 C 885.5 2470.9 878.3 2470.8 871.1 2472" fill-rule="evenodd" />
</svg>
